{"glyphs":{"0":{"ha":929,"x_min":0,"x_max":909,"o":"m 119 909 l 789 909 q 909 789 909 909 l 909 119 q 789 0 909 0 l 119 0 q 0 119 0 0 l 0 789 q 119 909 0 909 m 206 445 q 374 160 206 229 q 456 146 430 146 q 681 307 605 146 q 703 445 703 382 q 540 727 703 660 q 453 743 500 743 l 450 743 q 225 572 292 743 q 206 445 206 515 m 453 616 l 456 616 q 540 515 524 616 q 543 475 543 492 l 543 415 q 488 282 543 314 q 453 274 468 274 q 369 382 369 287 q 366 407 366 382 l 366 431 q 363 445 366 440 l 366 461 l 366 480 q 418 608 366 576 q 453 616 431 616 z "},"1":{"ha":929,"x_min":0,"x_max":909,"o":"m 119 909 l 789 909 q 909 789 909 909 l 909 119 q 789 0 909 0 l 119 0 q 0 119 0 0 l 0 789 q 119 909 0 909 m 450 738 q 350 618 450 653 q 282 610 313 610 l 277 610 l 277 491 l 407 491 q 412 486 412 490 l 412 155 l 586 155 l 586 738 l 450 738 z "},"2":{"ha":929,"x_min":0,"x_max":909,"o":"m 119 909 l 789 909 q 909 789 909 909 l 909 119 q 789 0 909 0 l 119 0 q 0 119 0 0 l 0 789 q 119 909 0 909 m 214 526 l 214 491 l 372 491 l 372 513 q 461 613 372 613 q 529 553 529 605 l 529 532 q 410 431 529 494 q 212 233 238 333 q 201 155 201 195 l 708 155 l 708 296 l 448 296 l 448 298 q 621 404 576 372 q 700 559 700 472 q 570 730 700 685 q 464 743 517 743 l 458 743 q 220 575 267 743 q 214 526 214 548 z "},"3":{"ha":929,"x_min":0,"x_max":909,"o":"m 119 909 l 789 909 q 909 789 909 909 l 909 119 q 789 0 909 0 l 119 0 q 0 119 0 0 l 0 789 q 119 909 0 909 m 220 543 l 377 543 l 377 553 q 453 616 377 607 l 458 616 q 534 564 534 616 q 486 515 527 515 q 469 513 486 513 l 426 513 l 407 515 l 407 401 q 453 407 446 407 q 532 353 532 407 l 532 342 q 458 279 532 279 l 450 279 q 361 369 361 286 l 361 374 l 203 374 l 203 347 q 415 149 203 179 q 461 146 433 149 q 692 266 635 146 q 705 326 705 294 l 705 345 q 618 464 705 435 l 613 464 l 613 472 q 686 572 672 472 q 689 594 686 591 q 575 724 689 671 q 467 743 529 743 l 461 743 q 231 613 287 743 q 220 543 220 572 z "},"4":{"ha":929,"x_min":0,"x_max":909,"o":"m 119 909 l 789 909 q 909 789 909 909 l 909 119 q 789 0 909 0 l 119 0 q 0 119 0 0 l 0 789 q 119 909 0 909 m 198 420 l 198 269 l 450 269 q 456 263 456 268 l 456 155 l 629 155 l 629 263 q 635 269 630 269 l 708 269 l 708 412 l 635 412 q 629 418 629 412 l 629 738 l 467 738 q 203 434 452 726 q 198 420 199 434 m 450 572 l 456 572 l 456 418 q 450 412 456 412 l 317 412 l 317 415 l 450 572 z "},"5":{"ha":929,"x_min":0,"x_max":909,"o":"m 119 909 l 789 909 q 909 789 909 909 l 909 119 q 789 0 909 0 l 119 0 q 0 119 0 0 l 0 789 q 119 909 0 909 m 277 738 l 217 401 l 369 401 q 458 439 400 439 q 540 363 540 431 l 540 350 q 450 279 540 290 l 448 279 q 363 336 376 279 l 198 336 l 198 317 q 331 163 198 218 q 448 146 399 146 q 694 279 633 146 q 708 355 708 314 q 570 545 708 507 q 518 551 526 551 q 391 515 439 551 q 388 518 391 518 q 410 594 403 594 l 673 594 q 678 600 678 594 l 678 732 q 673 738 678 738 l 277 738 z "},"6":{"ha":929,"x_min":0,"x_max":909,"o":"m 119 909 l 789 909 q 909 789 909 909 l 909 119 q 789 0 909 0 l 119 0 q 0 119 0 0 l 0 789 q 119 909 0 909 m 209 423 q 412 149 209 195 q 458 146 437 149 q 684 279 628 146 q 697 363 697 321 q 562 543 697 496 q 507 548 523 548 l 494 548 q 369 505 415 548 q 366 507 369 507 q 469 624 388 624 l 472 624 q 543 581 518 624 l 692 581 q 651 678 679 648 q 477 743 596 743 l 472 743 q 214 502 257 743 q 209 423 209 465 m 469 437 q 543 369 543 420 l 543 358 q 458 279 543 289 l 450 279 q 377 361 377 293 q 442 437 377 417 l 469 437 z "},"7":{"ha":929,"x_min":0,"x_max":909,"o":"m 119 909 l 789 909 q 909 789 909 909 l 909 119 q 789 0 909 0 l 119 0 q 0 119 0 0 l 0 789 q 119 909 0 909 m 231 738 l 231 594 l 505 594 l 505 591 q 328 239 359 418 q 317 155 317 162 l 505 155 l 505 184 q 678 602 505 427 l 678 738 l 231 738 z "},"8":{"ha":929,"x_min":0,"x_max":909,"o":"m 119 909 l 789 909 q 909 789 909 909 l 909 119 q 789 0 909 0 l 119 0 q 0 119 0 0 l 0 789 q 119 909 0 909 m 220 581 q 298 467 220 496 q 309 464 303 464 l 309 458 q 206 393 250 458 q 195 339 195 362 l 195 320 q 334 163 195 208 q 453 146 398 146 q 708 288 657 146 q 713 334 713 319 q 635 450 713 414 q 602 458 615 458 l 602 464 q 678 529 641 464 q 689 581 689 553 l 689 586 q 567 727 689 684 q 461 743 520 743 l 448 743 q 225 621 264 743 q 220 581 220 595 m 445 632 l 464 632 q 537 594 521 632 l 540 578 l 540 556 q 453 505 540 513 q 372 553 372 513 q 369 564 369 553 l 369 572 q 445 632 369 632 m 453 410 q 548 331 548 410 q 467 269 538 269 l 439 269 q 361 326 361 277 l 361 336 q 407 401 361 383 q 453 410 428 407 z "},"9":{"ha":929,"x_min":0,"x_max":909,"o":"m 119 909 l 789 909 q 909 789 909 909 l 909 119 q 789 0 909 0 l 119 0 q 0 119 0 0 l 0 789 q 119 909 0 909 m 209 529 l 209 524 q 358 345 209 381 q 396 342 381 342 l 412 342 q 537 385 479 342 q 540 382 537 382 q 448 269 511 269 l 420 269 q 369 307 369 279 l 214 307 q 266 203 214 267 q 434 146 331 146 q 684 339 623 146 q 700 467 700 404 q 513 738 700 688 q 458 743 486 743 l 448 743 q 222 605 286 743 q 209 529 209 568 m 448 613 q 532 529 532 600 q 458 453 516 453 l 437 453 q 363 524 363 471 l 363 540 q 448 613 363 595 z "}," ":{"ha":345,"x_min":0,"x_max":0,"o":""},"!":{"ha":929,"x_min":0,"x_max":909,"o":"m 119 909 l 789 909 q 909 789 909 909 l 909 119 q 789 0 909 0 l 119 0 q 0 119 0 0 l 0 789 q 119 909 0 909 m 369 751 l 369 618 q 415 369 374 570 l 496 369 q 543 629 543 619 l 543 751 l 369 751 m 369 320 l 369 155 l 543 155 l 543 320 l 369 320 z "},"\"":{"ha":929,"x_min":0,"x_max":909,"o":"m 119 909 l 789 909 q 909 789 909 909 l 909 119 q 789 0 909 0 l 119 0 q 0 119 0 0 l 0 789 q 119 909 0 909 m 301 857 l 301 540 l 429 540 l 429 857 l 301 857 m 480 857 l 480 540 l 608 540 l 608 857 l 480 857 z "},"#":{"ha":929,"x_min":0,"x_max":909,"o":"m 119 909 l 789 909 q 909 789 909 909 l 909 119 q 789 0 909 0 l 119 0 q 0 119 0 0 l 0 789 q 119 909 0 909 m 355 738 l 355 735 q 331 586 339 586 l 263 586 l 263 583 l 252 488 l 317 488 l 323 486 q 307 407 313 407 l 239 407 q 225 309 231 339 l 293 309 l 298 307 q 277 155 296 300 l 388 155 q 412 309 406 309 l 464 309 l 469 307 q 448 155 467 298 l 559 155 q 583 309 577 309 l 646 309 l 646 312 l 656 407 l 600 407 q 594 412 594 407 q 608 488 602 488 l 670 488 q 684 586 675 539 l 624 586 q 618 591 618 586 l 637 738 l 532 738 q 507 589 526 738 l 502 586 l 453 586 q 448 591 448 586 l 467 738 l 355 738 m 437 488 l 488 488 l 494 486 q 477 407 484 407 l 429 407 q 423 412 423 407 q 437 488 430 488 z "},"$":{"ha":929,"x_min":0,"x_max":909,"o":"m 119 909 l 789 909 q 909 789 909 909 l 909 119 q 789 0 909 0 l 119 0 q 0 119 0 0 l 0 789 q 119 909 0 909 m 434 833 l 434 770 q 429 765 434 765 l 420 765 q 231 659 296 765 q 209 570 209 616 q 399 401 209 443 q 434 385 434 392 l 434 277 l 431 271 q 366 336 366 283 l 366 353 l 187 353 l 187 345 q 301 165 187 233 q 418 141 363 141 l 429 141 q 434 136 434 140 l 434 57 l 477 57 l 477 136 q 483 141 478 141 l 496 141 q 713 277 661 141 q 722 326 722 306 l 722 347 q 586 510 722 465 l 477 543 l 477 629 l 480 635 q 540 572 531 635 l 700 572 l 700 575 q 551 760 700 715 q 491 765 511 765 l 483 765 q 477 770 477 765 l 477 833 l 434 833 m 429 635 q 434 629 434 634 l 434 551 q 374 594 374 563 l 374 600 q 429 635 374 635 m 483 377 q 548 328 548 358 l 548 317 q 480 271 548 282 l 477 277 l 477 372 q 483 377 478 377 z "},"%":{"ha":929,"x_min":0,"x_max":909,"o":"m 119 909 l 789 909 q 909 789 909 909 l 909 119 q 789 0 909 0 l 119 0 q 0 119 0 0 l 0 789 q 119 909 0 909 m 572 760 q 231 133 572 755 l 320 133 q 665 757 337 159 l 665 760 l 572 760 m 81 589 l 81 586 q 163 437 81 473 q 228 426 195 426 q 372 543 349 426 q 374 570 374 557 l 374 594 q 255 743 374 720 l 220 743 q 92 654 125 743 q 81 589 81 626 m 231 673 q 266 616 261 673 l 266 553 q 233 499 266 499 l 222 499 q 190 556 190 499 l 190 610 q 231 673 190 673 m 529 307 q 678 146 529 146 q 817 247 783 146 q 822 296 822 274 l 822 317 q 722 461 822 429 q 692 464 703 464 l 662 464 q 540 380 576 464 q 529 307 529 343 m 678 393 q 716 307 716 393 q 678 220 716 220 l 673 220 q 637 282 637 220 l 637 331 q 678 393 637 393 z "},"&":{"ha":929,"x_min":0,"x_max":909,"o":"m 119 909 l 789 909 q 909 789 909 909 l 909 119 q 789 0 909 0 l 119 0 q 0 119 0 0 l 0 789 q 119 909 0 909 m 239 613 q 282 505 239 558 l 282 499 q 152 334 152 431 q 293 149 152 197 q 347 141 313 141 l 372 141 q 526 195 458 141 l 562 155 l 754 155 q 635 301 635 300 q 705 445 688 359 l 567 445 q 543 401 552 401 l 502 453 l 502 461 q 608 610 608 522 q 496 757 608 723 q 431 765 462 765 l 401 765 q 263 692 322 765 q 239 613 239 656 m 426 656 q 467 610 462 656 q 420 553 467 583 l 418 553 q 380 616 380 593 q 426 656 380 648 m 369 393 q 437 309 414 340 l 437 307 q 366 271 401 271 q 312 320 312 285 l 312 334 q 369 393 312 361 z "},"'":{"ha":929,"x_min":0,"x_max":909,"o":"m 119 909 l 789 909 q 909 789 909 909 l 909 119 q 789 0 909 0 l 119 0 q 0 119 0 0 l 0 789 q 119 909 0 909 m 391 857 l 391 540 l 518 540 l 518 857 l 391 857 z "},"(":{"ha":929,"x_min":0,"x_max":909,"o":"m 119 909 l 789 909 q 909 789 909 909 l 909 119 q 789 0 909 0 l 119 0 q 0 119 0 0 l 0 789 q 119 909 0 909 m 339 469 l 339 434 q 429 76 339 261 l 570 76 l 570 79 q 496 453 496 264 q 570 830 496 642 l 431 830 q 339 469 339 659 z "},")":{"ha":929,"x_min":0,"x_max":909,"o":"m 119 909 l 789 909 q 909 789 909 909 l 909 119 q 789 0 909 0 l 119 0 q 0 119 0 0 l 0 789 q 119 909 0 909 m 336 830 q 410 477 410 645 l 410 426 q 336 76 410 249 l 477 76 q 570 450 570 249 q 477 830 570 661 l 336 830 z "},"*":{"ha":929,"x_min":0,"x_max":909,"o":"m 119 909 l 789 909 q 909 789 909 909 l 909 119 q 789 0 909 0 l 119 0 q 0 119 0 0 l 0 789 q 119 909 0 909 m 410 817 l 410 711 l 407 705 q 304 738 321 738 q 277 654 277 661 q 380 621 371 621 l 380 616 l 312 532 q 385 472 312 529 l 388 472 q 453 564 424 530 q 518 472 460 561 q 594 532 528 476 q 529 618 545 595 l 635 654 q 605 741 605 733 q 505 705 599 741 l 502 711 l 502 817 l 410 817 z "},"+":{"ha":929,"x_min":0,"x_max":909,"o":"m 119 909 l 789 909 q 909 789 909 909 l 909 119 q 789 0 909 0 l 119 0 q 0 119 0 0 l 0 789 q 119 909 0 909 m 391 640 l 391 499 q 385 494 391 494 l 244 494 l 244 366 l 385 366 q 391 361 391 366 l 391 217 l 518 217 l 518 361 q 524 366 519 366 l 665 366 l 665 494 l 524 494 q 518 499 518 494 l 518 640 l 391 640 z "},",":{"ha":929,"x_min":0,"x_max":909,"o":"m 119 909 l 789 909 q 909 789 909 909 l 909 119 q 789 0 909 0 l 119 0 q 0 119 0 0 l 0 789 q 119 909 0 909 m 366 382 l 366 217 l 434 217 q 439 212 439 216 q 366 138 420 138 l 366 65 l 369 65 q 540 258 540 65 l 540 382 l 366 382 z "},"-":{"ha":929,"x_min":0,"x_max":909,"o":"m 119 909 l 789 909 q 909 789 909 909 l 909 119 q 789 0 909 0 l 119 0 q 0 119 0 0 l 0 789 q 119 909 0 909 m 323 510 l 323 374 l 586 374 l 583 380 l 583 505 l 586 510 l 323 510 z "},".":{"ha":929,"x_min":0,"x_max":909,"o":"m 119 909 l 789 909 q 909 789 909 909 l 909 119 q 789 0 909 0 l 119 0 q 0 119 0 0 l 0 789 q 119 909 0 909 m 366 382 l 366 217 l 540 217 l 540 382 l 366 382 z "},"/":{"ha":929,"x_min":0,"x_max":909,"o":"m 119 909 l 789 909 q 909 789 909 909 l 909 119 q 789 0 909 0 l 119 0 q 0 119 0 0 l 0 789 q 119 909 0 909 m 274 141 l 401 141 l 632 765 l 510 765 q 274 141 499 750 z "},":":{"ha":929,"x_min":0,"x_max":909,"o":"m 119 909 l 789 909 q 909 789 909 909 l 909 119 q 789 0 909 0 l 119 0 q 0 119 0 0 l 0 789 q 119 909 0 909 m 366 654 l 366 488 l 540 488 l 540 654 l 366 654 m 366 382 l 366 217 l 540 217 l 540 382 l 366 382 z "},";":{"ha":929,"x_min":0,"x_max":909,"o":"m 119 909 l 789 909 q 909 789 909 909 l 909 119 q 789 0 909 0 l 119 0 q 0 119 0 0 l 0 789 q 119 909 0 909 m 366 654 l 366 488 l 540 488 l 540 654 l 366 654 m 366 382 l 366 217 l 434 217 q 439 212 439 216 q 366 138 420 138 l 366 65 l 369 65 q 540 258 540 65 l 540 382 l 366 382 z "},"<":{"ha":929,"x_min":0,"x_max":909,"o":"m 119 909 l 789 909 q 909 789 909 909 l 909 119 q 789 0 909 0 l 119 0 q 0 119 0 0 l 0 789 q 119 909 0 909 m 244 507 l 244 399 q 667 236 268 392 l 667 366 q 442 453 661 373 l 442 456 q 667 537 640 529 l 667 670 l 665 670 l 244 507 z "},"=":{"ha":929,"x_min":0,"x_max":909,"o":"m 119 909 l 789 909 q 909 789 909 909 l 909 119 q 789 0 909 0 l 119 0 q 0 119 0 0 l 0 789 q 119 909 0 909 m 244 621 l 244 494 l 667 494 l 667 616 q 662 621 667 621 l 244 621 m 244 418 l 244 290 l 667 290 l 667 418 l 244 418 z "},">":{"ha":929,"x_min":0,"x_max":909,"o":"m 119 909 l 789 909 q 909 789 909 909 l 909 119 q 789 0 909 0 l 119 0 q 0 119 0 0 l 0 789 q 119 909 0 909 m 244 670 l 244 540 q 467 456 246 535 l 467 450 l 244 372 l 244 236 q 667 401 644 393 l 667 507 l 244 670 z "},"?":{"ha":929,"x_min":0,"x_max":909,"o":"m 119 909 l 789 909 q 909 789 909 909 l 909 119 q 789 0 909 0 l 119 0 q 0 119 0 0 l 0 789 q 119 909 0 909 m 225 545 l 399 545 l 399 548 q 456 618 399 618 q 502 578 502 618 l 502 575 q 418 507 502 536 q 366 407 366 465 l 366 361 l 372 363 l 521 363 l 521 377 q 627 469 521 424 q 681 583 681 507 q 534 751 681 705 q 458 760 497 760 q 244 629 298 760 q 225 545 231 600 m 355 312 l 355 146 l 529 146 l 529 312 l 355 312 z "},"@":{"ha":929,"x_min":0,"x_max":909,"o":"m 119 909 l 789 909 q 909 789 909 909 l 909 119 q 789 0 909 0 l 119 0 q 0 119 0 0 l 0 789 q 119 909 0 909 m 138 450 q 334 163 138 254 q 448 141 396 141 l 483 141 q 727 271 633 141 l 727 274 l 635 274 q 458 225 573 225 q 239 369 307 225 q 225 445 225 411 l 225 458 q 391 670 225 610 q 469 681 421 681 q 673 559 627 681 q 684 491 681 530 q 610 355 684 378 q 597 374 597 359 q 640 605 597 392 l 562 605 l 553 572 l 548 572 q 456 618 517 618 l 445 618 q 279 469 325 618 q 277 431 277 446 l 277 410 q 388 271 277 304 q 415 269 412 269 q 499 309 467 269 l 502 309 q 548 269 502 275 q 722 363 637 269 q 768 518 768 427 q 548 760 768 705 q 491 765 514 765 l 448 765 q 179 616 275 765 q 138 450 138 543 m 464 518 q 524 453 512 518 q 442 372 509 372 l 439 372 q 385 437 385 381 q 464 518 402 518 z "},"A":{"ha":929,"x_min":0,"x_max":909,"o":"m 119 909 l 789 909 q 909 789 909 909 l 909 119 q 789 0 909 0 l 119 0 q 0 119 0 0 l 0 789 q 119 909 0 909 m 363 751 q 144 155 358 732 l 326 155 q 355 239 331 155 l 361 241 l 543 241 q 572 155 547 241 l 762 155 l 545 751 l 363 751 m 458 548 q 510 369 461 531 l 505 366 l 401 366 l 396 369 l 453 548 l 458 548 z "},"B":{"ha":929,"x_min":0,"x_max":909,"o":"m 119 909 l 789 909 q 909 789 909 909 l 909 119 q 789 0 909 0 l 119 0 q 0 119 0 0 l 0 789 q 119 909 0 909 m 195 751 l 195 155 l 540 155 q 732 274 677 155 q 743 336 743 309 q 643 483 743 444 l 643 486 q 713 602 713 528 q 553 751 713 731 l 195 751 m 382 610 l 477 610 q 540 567 540 610 q 464 518 540 518 l 382 518 q 377 524 377 518 l 377 605 q 382 610 378 610 m 382 410 l 475 410 q 559 358 559 410 l 559 347 q 488 296 559 296 l 382 296 q 377 301 377 296 l 377 404 q 382 410 378 410 z "},"C":{"ha":929,"x_min":0,"x_max":909,"o":"m 119 909 l 789 909 q 909 789 909 909 l 909 119 q 789 0 909 0 l 119 0 q 0 119 0 0 l 0 789 q 119 909 0 909 m 165 453 q 336 165 165 250 q 453 141 396 141 l 483 141 q 724 298 645 141 q 743 388 738 330 l 562 388 q 464 288 543 288 q 358 377 389 288 q 350 448 350 420 l 350 458 q 429 613 350 579 q 464 618 456 618 q 562 532 540 618 l 562 529 l 741 529 q 681 684 741 594 q 488 765 603 765 l 458 765 q 182 564 254 765 q 165 453 165 509 z "},"D":{"ha":929,"x_min":0,"x_max":909,"o":"m 119 909 l 789 909 q 909 789 909 909 l 909 119 q 789 0 909 0 l 119 0 q 0 119 0 0 l 0 789 q 119 909 0 909 m 195 751 l 195 155 l 467 155 q 746 323 680 155 q 765 437 765 379 l 765 469 q 597 738 765 669 q 502 751 550 751 l 195 751 m 382 600 l 434 600 q 567 529 534 600 q 583 453 583 494 q 499 312 583 347 q 448 307 467 307 l 382 307 q 377 312 377 307 l 377 594 q 382 600 378 600 z "},"E":{"ha":929,"x_min":0,"x_max":909,"o":"m 119 909 l 789 909 q 909 789 909 909 l 909 119 q 789 0 909 0 l 119 0 q 0 119 0 0 l 0 789 q 119 909 0 909 m 203 751 l 203 155 l 708 155 l 708 307 l 393 307 q 388 312 388 307 l 388 377 q 393 382 389 382 l 670 382 l 670 524 l 393 524 q 388 529 388 524 l 388 594 q 393 600 389 600 l 697 600 l 697 751 l 203 751 z "},"F":{"ha":929,"x_min":0,"x_max":909,"o":"m 119 909 l 789 909 q 909 789 909 909 l 909 119 q 789 0 909 0 l 119 0 q 0 119 0 0 l 0 789 q 119 909 0 909 m 225 751 l 225 155 l 407 155 l 407 377 q 412 382 408 382 l 646 382 l 646 524 l 412 524 q 407 529 407 524 l 407 594 q 412 600 408 600 l 686 600 l 686 751 l 225 751 z "},"G":{"ha":929,"x_min":0,"x_max":909,"o":"m 119 909 l 789 909 q 909 789 909 909 l 909 119 q 789 0 909 0 l 119 0 q 0 119 0 0 l 0 789 q 119 909 0 909 m 165 461 l 165 431 q 315 171 165 264 q 434 141 379 141 l 461 141 q 618 212 551 141 l 621 212 q 627 155 621 199 l 743 155 l 743 483 l 499 483 l 499 355 l 572 355 q 578 347 578 355 q 483 288 551 288 q 358 377 393 288 q 347 453 347 416 q 475 618 347 618 q 556 553 529 618 q 559 543 556 552 l 735 543 q 640 711 701 674 q 477 765 566 765 l 448 765 q 198 610 289 765 q 165 461 165 536 z "},"H":{"ha":929,"x_min":0,"x_max":909,"o":"m 119 909 l 789 909 q 909 789 909 909 l 909 119 q 789 0 909 0 l 119 0 q 0 119 0 0 l 0 789 q 119 909 0 909 m 184 751 l 184 155 l 366 155 l 366 385 q 372 391 367 391 l 534 391 q 540 385 540 390 l 540 155 l 724 155 l 724 751 l 540 751 l 540 548 q 534 543 540 543 l 372 543 q 366 548 366 543 l 366 751 l 184 751 z "},"I":{"ha":929,"x_min":0,"x_max":909,"o":"m 119 909 l 789 909 q 909 789 909 909 l 909 119 q 789 0 909 0 l 119 0 q 0 119 0 0 l 0 789 q 119 909 0 909 m 363 751 l 363 155 l 545 155 l 545 751 l 363 751 z "},"J":{"ha":929,"x_min":0,"x_max":909,"o":"m 119 909 l 789 909 q 909 789 909 909 l 909 119 q 789 0 909 0 l 119 0 q 0 119 0 0 l 0 789 q 119 909 0 909 m 491 751 l 491 377 q 494 353 491 368 q 453 282 494 282 l 442 282 q 399 339 399 282 l 399 404 l 233 404 l 233 339 q 361 152 233 201 q 437 141 404 141 l 472 141 q 675 363 675 141 l 675 751 l 491 751 z "},"K":{"ha":929,"x_min":0,"x_max":909,"o":"m 119 909 l 789 909 q 909 789 909 909 l 909 119 q 789 0 909 0 l 119 0 q 0 119 0 0 l 0 789 q 119 909 0 909 m 168 751 l 168 155 l 353 155 l 353 331 q 404 385 376 361 q 553 155 541 167 l 779 155 q 529 521 547 490 q 743 751 531 521 l 515 751 q 355 551 412 616 l 353 551 l 353 751 l 168 751 z "},"L":{"ha":929,"x_min":0,"x_max":909,"o":"m 119 909 l 789 909 q 909 789 909 909 l 909 119 q 789 0 909 0 l 119 0 q 0 119 0 0 l 0 789 q 119 909 0 909 m 231 751 l 231 155 l 678 155 l 678 307 l 420 307 q 415 312 415 307 l 415 751 l 231 751 z "},"M":{"ha":929,"x_min":0,"x_max":909,"o":"m 119 909 l 789 909 q 909 789 909 909 l 909 119 q 789 0 909 0 l 119 0 q 0 119 0 0 l 0 789 q 119 909 0 909 m 106 751 l 106 155 l 279 155 l 279 532 l 285 532 q 385 155 285 524 l 524 155 l 624 534 l 629 534 l 629 155 l 803 155 l 803 751 l 540 751 q 456 404 532 711 l 450 404 l 369 751 l 106 751 z "},"N":{"ha":929,"x_min":0,"x_max":909,"o":"m 119 909 l 789 909 q 909 789 909 909 l 909 119 q 789 0 909 0 l 119 0 q 0 119 0 0 l 0 789 q 119 909 0 909 m 184 751 l 184 155 l 358 155 l 358 477 l 363 477 l 543 155 l 724 155 l 724 751 l 551 751 l 551 434 l 548 434 q 374 751 542 437 l 184 751 z "},"O":{"ha":929,"x_min":0,"x_max":909,"o":"m 119 909 l 789 909 q 909 789 909 909 l 909 119 q 789 0 909 0 l 119 0 q 0 119 0 0 l 0 789 q 119 909 0 909 m 152 469 l 152 437 q 307 174 152 267 q 439 141 373 141 l 469 141 q 735 323 647 141 q 757 450 757 391 l 757 456 q 548 754 757 678 q 469 765 503 765 l 434 765 q 182 605 276 765 q 152 469 152 528 m 456 618 q 564 526 532 618 q 572 464 572 499 l 572 442 q 480 290 572 321 q 450 288 474 290 q 342 385 375 288 q 334 453 334 429 q 420 613 334 579 q 456 618 445 618 z "},"P":{"ha":929,"x_min":0,"x_max":909,"o":"m 119 909 l 789 909 q 909 789 909 909 l 909 119 q 789 0 909 0 l 119 0 q 0 119 0 0 l 0 789 q 119 909 0 909 m 201 751 l 201 155 l 385 155 l 385 331 q 391 336 386 336 l 510 336 q 724 491 680 336 l 730 548 q 608 735 730 673 q 515 751 561 751 l 201 751 m 391 600 l 475 600 q 556 540 556 600 q 469 477 556 477 l 391 477 q 385 483 385 477 l 385 594 q 391 600 386 600 z "},"Q":{"ha":929,"x_min":0,"x_max":909,"o":"m 119 909 l 789 909 q 909 789 909 909 l 909 119 q 789 0 909 0 l 119 0 q 0 119 0 0 l 0 789 q 119 909 0 909 m 149 450 q 336 160 149 245 q 439 141 391 141 l 469 141 q 597 171 535 141 q 675 90 672 90 q 757 171 679 90 l 689 241 l 689 247 q 757 453 757 336 q 551 754 757 674 q 469 765 499 765 l 437 765 q 174 586 261 765 q 149 450 149 515 m 456 618 q 564 524 532 618 q 572 458 572 492 l 572 448 q 559 377 570 377 l 510 423 l 429 345 q 475 293 475 296 l 475 290 q 453 288 473 290 q 339 391 370 288 q 334 456 334 425 q 431 616 334 590 q 456 618 446 618 z "},"R":{"ha":929,"x_min":0,"x_max":909,"o":"m 119 909 l 789 909 q 909 789 909 909 l 909 119 q 789 0 909 0 l 119 0 q 0 119 0 0 l 0 789 q 119 909 0 909 m 182 751 l 182 155 l 366 155 l 366 358 q 372 363 367 363 l 461 363 q 534 326 515 363 q 562 157 545 281 l 567 155 l 746 155 l 746 157 q 722 326 733 177 q 656 423 696 401 q 643 429 648 429 l 643 434 q 730 583 730 475 q 581 749 730 712 q 543 751 557 751 l 182 751 m 372 610 l 456 610 q 545 548 545 610 q 472 491 545 491 l 372 491 q 366 496 366 491 l 366 605 q 372 610 367 610 z "},"S":{"ha":929,"x_min":0,"x_max":909,"o":"m 119 909 l 789 909 q 909 789 909 909 l 909 119 q 789 0 909 0 l 119 0 q 0 119 0 0 l 0 789 q 119 909 0 909 m 209 575 l 209 559 q 442 388 209 433 q 540 331 540 361 l 540 320 q 461 271 540 277 q 369 347 369 271 l 369 355 l 184 355 l 184 353 q 334 157 184 212 q 434 141 392 141 l 464 141 q 713 277 653 141 q 724 350 724 314 q 545 521 724 477 q 382 594 382 553 l 382 605 q 445 635 397 635 l 450 635 q 524 589 524 627 q 526 578 526 589 l 526 572 l 700 572 q 597 738 700 680 q 472 765 533 765 l 431 765 q 217 632 275 765 q 209 575 209 604 z "},"T":{"ha":929,"x_min":0,"x_max":909,"o":"m 119 909 l 789 909 q 909 789 909 909 l 909 119 q 789 0 909 0 l 119 0 q 0 119 0 0 l 0 789 q 119 909 0 909 m 195 751 l 195 600 l 358 600 q 363 594 363 599 l 363 155 l 545 155 l 545 594 q 551 600 546 600 l 713 600 l 713 751 l 195 751 z "},"U":{"ha":929,"x_min":0,"x_max":909,"o":"m 119 909 l 789 909 q 909 789 909 909 l 909 119 q 789 0 909 0 l 119 0 q 0 119 0 0 l 0 789 q 119 909 0 909 m 182 751 l 182 372 q 304 165 182 223 q 434 141 365 141 l 475 141 q 727 401 727 141 l 727 751 l 543 751 l 543 404 q 453 288 543 288 q 363 418 363 288 l 363 746 l 366 751 l 182 751 z "},"V":{"ha":929,"x_min":0,"x_max":909,"o":"m 119 909 l 789 909 q 909 789 909 909 l 909 119 q 789 0 909 0 l 119 0 q 0 119 0 0 l 0 789 q 119 909 0 909 m 168 751 l 168 749 l 345 155 l 548 155 q 643 453 559 169 q 738 751 654 481 l 548 751 q 453 393 540 711 l 448 393 q 353 751 448 401 l 168 751 z "},"W":{"ha":929,"x_min":0,"x_max":909,"o":"m 119 909 l 789 909 q 909 789 909 909 l 909 119 q 789 0 909 0 l 119 0 q 0 119 0 0 l 0 789 q 119 909 0 909 m 46 751 l 209 155 l 388 155 l 450 513 l 456 513 l 456 510 q 518 155 456 500 l 697 155 q 863 751 863 746 l 686 751 q 651 583 680 751 q 610 380 648 583 l 605 380 q 537 751 537 743 l 377 751 q 334 540 371 751 q 304 388 317 474 l 298 388 q 228 751 228 737 l 46 751 z "},"X":{"ha":929,"x_min":0,"x_max":909,"o":"m 119 909 l 789 909 q 909 789 909 909 l 909 119 q 789 0 909 0 l 119 0 q 0 119 0 0 l 0 789 q 119 909 0 909 m 155 751 l 350 472 l 136 155 l 347 155 q 450 328 347 164 q 551 155 457 328 l 773 155 q 562 469 728 224 l 751 751 l 551 751 q 461 591 547 751 l 458 591 q 366 751 372 749 l 155 751 z "},"Y":{"ha":929,"x_min":0,"x_max":909,"o":"m 119 909 l 789 909 q 909 789 909 909 l 909 119 q 789 0 909 0 l 119 0 q 0 119 0 0 l 0 789 q 119 909 0 909 m 152 751 l 152 749 q 361 369 360 378 l 361 155 l 545 155 l 545 369 q 757 751 545 376 l 556 751 q 453 537 474 569 q 355 751 448 537 l 152 751 z "},"Z":{"ha":929,"x_min":0,"x_max":909,"o":"m 119 909 l 789 909 q 909 789 909 909 l 909 119 q 789 0 909 0 l 119 0 q 0 119 0 0 l 0 789 q 119 909 0 909 m 201 751 l 203 746 l 203 605 l 201 600 l 461 600 l 461 597 l 187 298 l 187 155 l 722 155 l 722 307 l 429 307 l 429 309 l 708 621 l 708 751 l 201 751 z "},"[":{"ha":929,"x_min":0,"x_max":909,"o":"m 119 909 l 789 909 q 909 789 909 909 l 909 119 q 789 0 909 0 l 119 0 q 0 119 0 0 l 0 789 q 119 909 0 909 m 317 830 l 317 76 l 594 76 l 594 203 l 469 203 q 464 209 464 203 l 464 697 q 469 703 465 703 l 594 703 l 594 830 l 317 830 z "},"\\":{"ha":929,"x_min":0,"x_max":909,"o":"m 119 909 l 789 909 q 909 789 909 909 l 909 119 q 789 0 909 0 l 119 0 q 0 119 0 0 l 0 789 q 119 909 0 909 m 274 765 l 507 141 l 632 141 l 632 144 l 401 765 l 274 765 z "},"]":{"ha":929,"x_min":0,"x_max":909,"o":"m 119 909 l 789 909 q 909 789 909 909 l 909 119 q 789 0 909 0 l 119 0 q 0 119 0 0 l 0 789 q 119 909 0 909 m 315 830 l 315 703 l 439 703 q 445 697 445 702 l 445 209 q 439 203 445 203 l 315 203 l 315 76 l 591 76 l 591 830 l 315 830 z "},"^":{"ha":929,"x_min":0,"x_max":909,"o":"m 119 909 l 789 909 q 909 789 909 909 l 909 119 q 789 0 909 0 l 119 0 q 0 119 0 0 l 0 789 q 119 909 0 909 m 401 857 q 258 553 391 829 l 382 553 q 453 708 391 564 l 456 708 q 526 553 515 566 l 651 553 q 507 857 513 839 l 401 857 z "},"_":{"ha":929,"x_min":0,"x_max":909,"o":"m 119 909 l 789 909 q 909 789 909 909 l 909 119 q 789 0 909 0 l 119 0 q 0 119 0 0 l 0 789 q 119 909 0 909 m 244 92 l 244 52 l 659 52 q 665 57 665 52 l 665 92 l 244 92 z "},"`":{"ha":929,"x_min":0,"x_max":909,"o":"m 119 909 l 789 909 q 909 789 909 909 l 909 119 q 789 0 909 0 l 119 0 q 0 119 0 0 l 0 789 q 119 909 0 909 m 293 857 q 437 732 422 741 l 548 732 l 467 857 l 293 857 z "},"a":{"ha":929,"x_min":0,"x_max":909,"o":"m 119 909 l 789 909 q 909 789 909 909 l 909 119 q 789 0 909 0 l 119 0 q 0 119 0 0 l 0 789 q 119 909 0 909 m 241 499 l 396 499 q 445 543 396 537 l 469 543 q 513 507 513 537 l 513 499 q 442 461 513 461 q 277 418 277 435 q 222 317 222 384 l 222 312 q 320 190 222 221 q 377 184 354 184 q 515 236 469 184 q 526 195 520 195 l 692 195 q 673 271 673 224 l 673 458 q 624 608 673 589 q 483 640 576 640 l 448 640 q 247 534 278 640 l 241 499 m 513 388 l 513 353 q 450 282 505 282 l 439 282 q 391 323 391 291 q 453 372 391 361 l 513 388 z "},"b":{"ha":929,"x_min":0,"x_max":909,"o":"m 119 909 l 789 909 q 909 789 909 909 l 909 119 q 789 0 909 0 l 119 0 q 0 119 0 0 l 0 789 q 119 909 0 909 m 236 792 l 236 195 l 393 195 l 393 236 q 399 241 394 241 q 526 184 431 184 q 700 350 654 184 q 705 407 705 384 l 705 429 q 583 632 705 585 q 529 640 559 640 l 513 640 q 401 583 449 640 q 399 586 401 586 l 401 591 l 401 792 l 236 792 m 461 521 l 467 521 q 529 483 510 521 q 540 429 540 454 l 540 396 q 480 304 540 322 l 467 304 q 396 388 406 304 q 393 412 393 403 q 437 515 393 490 q 461 521 454 521 z "},"c":{"ha":929,"x_min":0,"x_max":909,"o":"m 119 909 l 789 909 q 909 789 909 909 l 909 119 q 789 0 909 0 l 119 0 q 0 119 0 0 l 0 789 q 119 909 0 909 m 225 423 l 225 401 q 385 195 225 253 q 458 184 418 184 l 461 184 q 678 334 623 184 q 686 369 684 362 l 526 369 q 461 304 515 304 q 388 412 388 304 q 461 521 388 521 q 524 467 524 515 l 681 467 q 613 597 681 530 q 469 640 545 640 l 448 640 q 233 483 296 640 q 225 423 225 449 z "},"d":{"ha":929,"x_min":0,"x_max":909,"o":"m 119 909 l 789 909 q 909 789 909 909 l 909 119 q 789 0 909 0 l 119 0 q 0 119 0 0 l 0 789 q 119 909 0 909 m 524 792 l 524 586 l 521 586 q 410 640 471 640 l 388 640 q 231 513 276 640 q 217 412 217 465 q 317 206 217 277 q 401 184 355 184 l 404 184 q 524 241 490 184 l 529 241 l 529 195 l 689 195 l 689 792 l 524 792 m 450 521 l 456 521 q 529 418 529 521 l 529 401 q 464 304 529 317 l 453 304 q 382 396 382 315 l 382 415 q 426 515 382 492 q 450 521 444 521 z "},"e":{"ha":929,"x_min":0,"x_max":909,"o":"m 119 909 l 789 909 q 909 789 909 909 l 909 119 q 789 0 909 0 l 119 0 q 0 119 0 0 l 0 789 q 119 909 0 909 m 214 410 q 385 193 214 243 q 461 184 422 184 q 681 320 624 184 l 529 320 q 456 290 501 290 q 374 355 397 290 q 372 372 374 368 l 377 374 l 692 374 q 551 627 692 573 q 461 640 497 640 l 434 640 q 233 505 298 640 q 214 410 214 459 m 453 534 l 467 534 q 532 469 532 519 l 532 467 q 526 461 532 461 l 380 461 q 374 469 374 461 q 420 529 374 500 q 453 534 439 534 z "},"f":{"ha":929,"x_min":0,"x_max":909,"o":"m 119 909 l 789 909 q 909 789 909 909 l 909 119 q 789 0 909 0 l 119 0 q 0 119 0 0 l 0 789 q 119 909 0 909 m 361 662 l 361 635 q 355 629 361 629 l 293 629 l 293 529 l 355 529 q 361 524 361 528 l 361 195 l 526 195 l 526 524 q 532 529 527 529 l 610 529 l 610 629 l 526 629 q 521 637 521 629 q 572 684 521 684 q 613 678 602 678 l 613 789 q 567 792 581 792 l 510 792 q 372 719 406 792 q 361 662 361 686 z "},"g":{"ha":929,"x_min":0,"x_max":909,"o":"m 119 909 l 789 909 q 909 789 909 909 l 909 119 q 789 0 909 0 l 119 0 q 0 119 0 0 l 0 789 q 119 909 0 909 m 222 445 l 222 418 q 363 225 222 266 q 399 222 381 222 l 415 222 q 524 279 477 222 l 526 279 l 526 247 q 486 146 526 170 q 464 141 475 141 l 456 141 q 399 187 433 141 l 239 187 l 239 184 q 323 68 239 121 q 461 43 389 43 l 467 43 q 675 149 628 43 q 692 269 692 197 l 692 629 l 526 629 l 526 581 l 521 581 q 448 637 521 610 q 418 640 429 640 l 396 640 q 228 496 275 640 q 222 445 222 464 m 453 521 l 464 521 q 529 445 519 521 l 529 412 q 475 328 521 328 l 453 328 q 388 420 397 328 l 388 450 q 453 521 401 521 z "},"h":{"ha":929,"x_min":0,"x_max":909,"o":"m 119 909 l 789 909 q 909 789 909 909 l 909 119 q 789 0 909 0 l 119 0 q 0 119 0 0 l 0 789 q 119 909 0 909 m 228 792 l 228 195 l 393 195 l 393 420 q 461 510 393 510 q 515 426 515 510 l 515 195 l 681 195 l 681 475 q 605 627 681 589 q 540 640 564 640 l 515 640 q 396 586 449 640 l 393 586 l 393 792 l 228 792 z "},"i":{"ha":929,"x_min":0,"x_max":909,"o":"m 119 909 l 789 909 q 909 789 909 909 l 909 119 q 789 0 909 0 l 119 0 q 0 119 0 0 l 0 789 q 119 909 0 909 m 372 792 l 372 678 l 537 678 l 537 792 l 372 792 m 372 629 l 372 195 l 537 195 l 537 629 l 372 629 z "},"j":{"ha":929,"x_min":0,"x_max":909,"o":"m 119 909 l 789 909 q 909 789 909 909 l 909 119 q 789 0 909 0 l 119 0 q 0 119 0 0 l 0 789 q 119 909 0 909 m 380 792 l 380 678 l 545 678 l 545 792 l 380 792 m 380 629 l 380 258 q 347 187 380 187 q 304 184 326 184 l 304 54 l 382 54 q 529 111 501 54 q 545 301 545 135 l 545 629 l 380 629 z "},"k":{"ha":929,"x_min":0,"x_max":909,"o":"m 119 909 l 789 909 q 909 789 909 909 l 909 119 q 789 0 909 0 l 119 0 q 0 119 0 0 l 0 789 q 119 909 0 909 m 236 792 l 236 195 l 401 195 l 401 320 q 429 350 426 350 l 434 350 l 518 195 l 719 195 q 540 469 543 458 q 692 629 595 522 l 507 629 q 404 510 406 510 l 401 510 l 401 792 l 236 792 z "},"l":{"ha":929,"x_min":0,"x_max":909,"o":"m 119 909 l 789 909 q 909 789 909 909 l 909 119 q 789 0 909 0 l 119 0 q 0 119 0 0 l 0 789 q 119 909 0 909 m 372 792 l 372 195 l 537 195 l 537 792 l 372 792 z "},"m":{"ha":929,"x_min":0,"x_max":909,"o":"m 119 909 l 789 909 q 909 789 909 909 l 909 119 q 789 0 909 0 l 119 0 q 0 119 0 0 l 0 789 q 119 909 0 909 m 255 575 l 252 575 l 252 629 l 92 629 l 92 195 l 258 195 l 258 426 q 317 510 258 510 q 369 448 369 510 l 369 195 l 534 195 l 534 434 q 594 510 534 510 q 646 448 646 510 l 646 195 l 811 195 l 811 494 q 735 627 811 590 q 675 640 706 640 l 654 640 q 513 575 571 640 q 401 640 473 640 l 388 640 q 255 575 304 640 z "},"n":{"ha":929,"x_min":0,"x_max":909,"o":"m 119 909 l 789 909 q 909 789 909 909 l 909 119 q 789 0 909 0 l 119 0 q 0 119 0 0 l 0 789 q 119 909 0 909 m 391 578 l 388 578 l 388 629 l 228 629 l 228 195 l 393 195 l 393 426 q 464 510 393 510 q 515 423 515 510 l 515 195 l 681 195 l 681 475 q 605 627 681 589 q 540 640 564 640 l 515 640 q 391 578 442 640 z "},"o":{"ha":929,"x_min":0,"x_max":909,"o":"m 119 909 l 789 909 q 909 789 909 909 l 909 119 q 789 0 909 0 l 119 0 q 0 119 0 0 l 0 789 q 119 909 0 909 m 217 418 l 217 407 q 366 195 217 253 q 456 184 415 184 l 458 184 q 678 331 622 184 q 689 399 689 368 l 689 426 q 521 635 689 585 q 469 640 488 640 l 442 640 q 236 513 295 640 q 217 418 217 472 m 448 521 l 453 521 q 526 415 526 521 q 450 304 526 304 q 382 385 393 304 l 382 423 q 448 521 382 521 z "},"p":{"ha":929,"x_min":0,"x_max":909,"o":"m 119 909 l 789 909 q 909 789 909 909 l 909 119 q 789 0 909 0 l 119 0 q 0 119 0 0 l 0 789 q 119 909 0 909 m 399 586 l 396 586 l 396 629 l 236 629 l 236 54 l 401 54 l 401 241 l 407 241 q 526 184 445 184 q 697 320 655 184 q 708 410 708 372 q 586 629 708 570 q 534 640 562 640 l 515 640 q 399 586 440 640 m 464 521 l 475 521 q 543 431 532 521 l 543 410 q 467 304 543 304 q 396 410 396 304 l 396 415 q 439 515 396 492 q 464 521 457 521 z "},"q":{"ha":929,"x_min":0,"x_max":909,"o":"m 119 909 l 789 909 q 909 789 909 909 l 909 119 q 789 0 909 0 l 119 0 q 0 119 0 0 l 0 789 q 119 909 0 909 m 217 410 q 342 193 217 237 q 404 184 369 184 q 518 241 478 184 l 524 241 l 524 54 l 689 54 l 689 629 l 529 629 l 529 586 l 526 586 q 410 640 486 640 l 391 640 q 220 453 261 640 q 217 410 217 425 m 450 521 l 456 521 q 529 420 529 521 l 529 407 q 453 304 529 304 q 382 393 393 304 l 382 415 q 426 515 382 492 q 450 521 444 521 z "},"r":{"ha":929,"x_min":0,"x_max":909,"o":"m 119 909 l 789 909 q 909 789 909 909 l 909 119 q 789 0 909 0 l 119 0 q 0 119 0 0 l 0 789 q 119 909 0 909 m 450 564 l 448 564 l 448 629 l 290 629 l 290 195 l 456 195 l 456 380 q 553 499 456 499 l 559 499 q 621 488 596 499 l 621 635 q 581 640 595 640 l 562 640 q 450 564 496 640 z "},"s":{"ha":929,"x_min":0,"x_max":909,"o":"m 119 909 l 789 909 q 909 789 909 909 l 909 119 q 789 0 909 0 l 119 0 q 0 119 0 0 l 0 789 q 119 909 0 909 m 247 513 l 247 494 q 420 366 247 397 q 515 320 515 357 q 458 285 507 285 q 393 336 393 293 l 236 336 q 385 190 236 226 q 453 184 426 184 q 670 301 637 184 q 673 331 673 319 l 673 342 q 537 469 673 437 q 404 515 404 486 l 404 518 q 453 551 404 546 q 510 505 510 543 l 662 505 l 662 507 q 553 629 662 591 q 464 640 504 640 l 437 640 q 252 545 296 640 q 247 513 247 526 z "},"t":{"ha":929,"x_min":0,"x_max":909,"o":"m 119 909 l 789 909 q 909 789 909 909 l 909 119 q 789 0 909 0 l 119 0 q 0 119 0 0 l 0 789 q 119 909 0 909 m 358 762 l 358 635 q 353 629 358 629 l 285 629 l 285 529 l 353 529 q 358 524 358 528 l 358 326 q 423 201 358 229 q 502 190 466 190 q 613 195 598 195 l 613 320 l 581 317 l 575 317 q 524 372 524 317 l 524 524 q 529 529 524 529 l 613 529 l 613 629 l 529 629 q 524 635 524 629 l 524 762 l 358 762 z "},"u":{"ha":929,"x_min":0,"x_max":909,"o":"m 119 909 l 789 909 q 909 789 909 909 l 909 119 q 789 0 909 0 l 119 0 q 0 119 0 0 l 0 789 q 119 909 0 909 m 228 629 l 228 339 q 331 190 228 222 q 380 184 358 184 q 518 247 465 184 l 521 247 l 521 195 l 681 195 l 681 629 l 515 629 l 515 407 q 464 317 515 330 l 439 317 q 393 396 393 317 l 393 629 l 228 629 z "},"v":{"ha":929,"x_min":0,"x_max":909,"o":"m 119 909 l 789 909 q 909 789 909 909 l 909 119 q 789 0 909 0 l 119 0 q 0 119 0 0 l 0 789 q 119 909 0 909 m 212 629 q 353 195 320 301 l 551 195 l 692 629 l 524 629 l 458 369 l 453 369 l 385 629 l 212 629 z "},"w":{"ha":929,"x_min":0,"x_max":909,"o":"m 119 909 l 789 909 q 909 789 909 909 l 909 119 q 789 0 909 0 l 119 0 q 0 119 0 0 l 0 789 q 119 909 0 909 m 81 629 l 217 195 l 388 195 q 453 458 447 458 l 456 458 l 515 195 l 686 195 q 825 629 806 576 l 651 629 q 589 363 595 363 l 586 363 l 532 629 l 374 629 q 317 366 323 366 l 315 366 l 255 629 l 81 629 z "},"x":{"ha":929,"x_min":0,"x_max":909,"o":"m 119 909 l 789 909 q 909 789 909 909 l 909 119 q 789 0 909 0 l 119 0 q 0 119 0 0 l 0 789 q 119 909 0 909 m 225 629 q 358 426 225 627 l 358 420 q 209 195 209 197 l 391 195 l 448 298 l 450 298 q 513 195 464 286 l 697 195 l 543 423 l 678 629 l 505 629 q 456 548 496 622 l 453 548 q 407 629 438 567 l 225 629 z "},"y":{"ha":929,"x_min":0,"x_max":909,"o":"m 119 909 l 789 909 q 909 789 909 909 l 909 119 q 789 0 909 0 l 119 0 q 0 119 0 0 l 0 789 q 119 909 0 909 m 209 629 q 355 222 355 241 l 355 220 q 298 184 355 184 l 258 184 l 252 187 l 250 182 l 250 54 l 350 54 q 524 144 490 54 l 700 629 l 532 629 q 480 453 524 629 q 456 385 460 386 l 453 385 q 388 629 388 623 l 209 629 z "},"z":{"ha":929,"x_min":0,"x_max":909,"o":"m 119 909 l 789 909 q 909 789 909 909 l 909 119 q 789 0 909 0 l 119 0 q 0 119 0 0 l 0 789 q 119 909 0 909 m 255 629 l 255 510 l 437 510 l 437 507 l 239 323 l 239 195 l 670 195 l 670 315 l 458 315 l 458 317 l 654 505 l 654 629 l 255 629 z "},"{":{"ha":929,"x_min":0,"x_max":909,"o":"m 119 909 l 789 909 q 909 789 909 909 l 909 119 q 789 0 909 0 l 119 0 q 0 119 0 0 l 0 789 q 119 909 0 909 m 382 564 q 347 521 382 534 l 320 518 l 312 518 l 312 391 q 382 342 382 384 l 382 187 q 458 84 382 113 q 515 76 487 76 l 597 76 l 597 203 l 583 203 q 524 258 524 203 l 524 377 q 434 450 524 450 l 429 450 l 429 456 l 431 456 q 524 510 500 456 l 524 643 q 564 703 524 703 l 597 703 l 597 830 l 502 830 q 382 735 405 830 l 382 564 z "},"|":{"ha":929,"x_min":0,"x_max":909,"o":"m 119 909 l 789 909 q 909 789 909 909 l 909 119 q 789 0 909 0 l 119 0 q 0 119 0 0 l 0 789 q 119 909 0 909 m 391 871 l 391 33 l 518 33 l 518 871 l 391 871 z "},"}":{"ha":929,"x_min":0,"x_max":909,"o":"m 119 909 l 789 909 q 909 789 909 909 l 909 119 q 789 0 909 0 l 119 0 q 0 119 0 0 l 0 789 q 119 909 0 909 m 312 830 l 312 703 l 339 703 q 382 662 382 703 l 382 551 q 426 467 388 467 q 475 456 427 458 l 480 456 l 480 450 l 472 450 q 385 388 398 450 q 382 366 382 385 l 382 241 q 328 203 382 207 l 312 203 l 312 76 l 388 76 q 518 144 487 76 q 524 176 524 163 l 524 317 q 556 385 524 375 q 597 391 586 391 q 594 399 594 396 q 597 518 597 506 l 591 518 q 526 562 526 525 q 524 597 524 579 l 524 738 q 420 830 524 804 l 312 830 z "},"~":{"ha":929,"x_min":0,"x_max":909,"o":"m 119 909 l 789 909 q 909 789 909 909 l 909 119 q 789 0 909 0 l 119 0 q 0 119 0 0 l 0 789 q 119 909 0 909 m 616 548 q 543 488 583 488 q 401 540 518 492 q 363 545 381 545 q 260 472 298 545 q 290 361 266 459 l 293 361 q 358 418 317 418 q 499 369 413 418 q 543 361 532 361 q 648 431 597 361 q 618 548 629 498 l 616 548 z "},"¡":{"ha":929,"x_min":0,"x_max":909,"o":"m 119 909 l 789 909 q 909 789 909 909 l 909 119 q 789 0 909 0 l 119 0 q 0 119 0 0 l 0 789 q 119 909 0 909 m 366 754 l 366 589 l 540 589 l 540 754 l 366 754 m 412 540 q 366 290 366 306 l 366 157 l 540 157 l 540 279 q 494 540 540 291 l 412 540 z "},"¢":{"ha":929,"x_min":0,"x_max":909,"o":"m 119 909 l 789 909 q 909 789 909 909 l 909 119 q 789 0 909 0 l 119 0 q 0 119 0 0 l 0 789 q 119 909 0 909 m 442 757 l 442 697 q 369 681 442 691 q 222 464 222 621 q 380 241 222 296 q 442 228 442 233 l 442 155 l 486 155 l 486 228 q 553 244 486 233 q 665 345 625 274 q 686 418 678 382 l 532 418 l 532 410 q 486 361 532 379 l 486 564 l 488 570 q 529 521 529 555 l 529 515 l 681 515 q 613 656 681 588 q 488 692 554 692 l 486 697 l 486 757 l 442 757 m 439 570 l 442 564 l 442 363 q 437 358 442 358 q 380 467 380 377 q 439 570 380 556 z "},"£":{"ha":929,"x_min":0,"x_max":909,"o":"m 119 909 l 789 909 q 909 789 909 909 l 909 119 q 789 0 909 0 l 119 0 q 0 119 0 0 l 0 789 q 119 909 0 909 m 236 578 q 258 505 236 536 l 258 499 l 201 499 l 201 393 l 296 393 q 304 372 304 392 l 304 355 q 214 233 304 294 l 214 231 q 279 141 276 141 q 366 174 327 174 q 537 141 401 174 l 572 141 q 705 209 644 141 q 640 323 644 321 l 637 323 q 578 271 614 271 q 456 293 478 293 l 453 293 q 426 288 448 293 q 472 377 472 330 l 469 391 l 475 393 l 532 393 l 532 499 l 445 499 q 410 578 420 532 l 410 589 q 464 635 410 635 q 521 559 521 625 l 681 559 l 681 562 q 548 754 681 705 q 475 765 511 765 l 439 765 q 244 632 296 765 q 236 578 236 612 z "},"¤":{"ha":929,"x_min":0,"x_max":909,"o":"m 119 909 l 789 909 q 909 789 909 909 l 909 119 q 789 0 909 0 l 119 0 q 0 119 0 0 l 0 789 q 119 909 0 909 m 231 616 l 277 570 l 277 564 q 247 469 247 515 l 247 445 q 279 342 247 395 l 231 293 q 293 231 231 290 q 342 277 293 233 l 345 277 q 458 244 389 244 q 567 279 522 244 l 618 231 l 678 293 l 632 342 q 665 439 665 390 l 665 450 q 667 453 665 453 l 665 458 l 665 469 q 632 567 665 518 l 678 616 q 616 678 678 619 l 570 635 l 564 635 q 458 665 517 665 l 450 665 q 345 635 392 665 l 342 635 l 293 678 q 231 616 290 678 m 456 545 q 545 469 527 545 l 545 450 q 475 366 545 389 l 445 366 q 366 448 383 366 l 366 458 q 456 545 366 532 z "},"¥":{"ha":929,"x_min":0,"x_max":909,"o":"m 119 909 l 789 909 q 909 789 909 909 l 909 119 q 789 0 909 0 l 119 0 q 0 119 0 0 l 0 789 q 119 909 0 909 m 171 751 q 293 521 293 528 l 236 521 l 236 418 l 350 418 q 369 380 357 418 l 369 350 q 363 345 369 345 l 236 345 l 236 244 l 363 244 q 369 239 369 243 l 369 155 l 534 155 l 534 239 q 540 244 535 244 l 670 244 l 670 345 l 540 345 q 534 350 534 345 l 534 374 q 556 418 549 418 l 670 418 l 670 521 l 616 521 l 610 524 q 732 751 724 731 l 545 751 l 456 524 l 450 524 q 355 751 362 748 l 171 751 z "},"¦":{"ha":929,"x_min":0,"x_max":909,"o":"m 119 909 l 789 909 q 909 789 909 909 l 909 119 q 789 0 909 0 l 119 0 q 0 119 0 0 l 0 789 q 119 909 0 909 m 391 768 l 391 559 l 518 559 l 518 768 l 391 768 m 391 347 l 391 138 l 518 138 l 518 347 l 391 347 z "},"§":{"ha":929,"x_min":0,"x_max":909,"o":"m 119 909 l 789 909 q 909 789 909 909 l 909 119 q 789 0 909 0 l 119 0 q 0 119 0 0 l 0 789 q 119 909 0 909 m 260 684 q 290 605 260 644 l 290 600 q 201 477 201 565 l 201 467 q 396 307 201 370 q 502 241 502 269 l 502 225 q 458 193 502 199 l 442 193 q 388 250 395 193 l 244 250 q 347 90 244 132 q 437 73 391 73 l 467 73 q 654 184 602 73 q 662 241 662 218 q 621 328 662 287 l 621 331 q 703 412 669 331 l 708 456 q 494 624 708 568 q 420 678 420 655 l 420 684 q 467 716 420 711 q 518 667 518 709 l 662 667 l 662 670 q 537 825 662 781 q 456 836 497 836 q 271 738 325 836 q 260 684 260 702 m 363 526 l 372 526 q 562 445 514 481 l 564 431 l 564 423 q 534 396 564 401 q 342 496 342 458 q 363 526 342 514 z "},"¨":{"ha":929,"x_min":0,"x_max":909,"o":"m 119 909 l 789 909 q 909 789 909 909 l 909 119 q 789 0 909 0 l 119 0 q 0 119 0 0 l 0 789 q 119 909 0 909 m 288 857 l 288 749 l 429 749 l 429 857 l 288 857 m 477 857 l 477 749 l 618 749 l 618 857 l 477 857 z "},"©":{"ha":929,"x_min":0,"x_max":909,"o":"m 119 909 l 789 909 q 909 789 909 909 l 909 119 q 789 0 909 0 l 119 0 q 0 119 0 0 l 0 789 q 119 909 0 909 m 138 453 q 320 168 138 269 q 437 141 386 141 l 464 141 q 732 312 631 141 q 765 453 765 378 q 559 749 765 657 q 469 765 505 765 l 439 765 q 201 640 302 765 q 138 453 138 553 m 450 670 q 651 524 589 670 q 662 458 662 492 l 662 450 q 515 247 662 309 q 450 236 485 239 q 260 366 326 236 q 241 456 241 410 q 380 656 241 591 q 450 670 415 667 m 288 453 q 393 290 288 336 q 448 279 420 279 l 464 279 q 605 404 571 279 l 605 412 l 521 412 q 456 363 521 363 q 380 450 391 363 l 380 456 q 439 540 380 526 q 458 543 450 543 q 521 499 521 534 l 602 499 q 551 597 597 549 q 464 627 509 627 l 445 627 q 293 499 331 627 q 288 453 288 465 z "},"ª":{"ha":929,"x_min":0,"x_max":909,"o":"m 119 909 l 789 909 q 909 789 909 909 l 909 119 q 789 0 909 0 l 119 0 q 0 119 0 0 l 0 789 q 119 909 0 909 m 315 789 l 415 789 q 458 817 415 813 q 491 798 480 817 l 491 792 q 448 768 491 768 q 323 732 353 756 q 304 689 304 709 l 304 670 q 393 600 315 600 l 410 600 q 491 629 456 600 l 494 629 l 494 624 l 496 605 l 605 605 l 605 608 q 594 651 594 627 l 594 770 q 467 873 594 873 l 453 873 q 315 789 315 873 m 488 724 l 491 719 l 491 703 q 437 656 491 656 q 412 681 412 661 l 412 692 q 488 724 412 705 z "},"«":{"ha":929,"x_min":0,"x_max":909,"o":"m 119 909 l 789 909 q 909 789 909 909 l 909 119 q 789 0 909 0 l 119 0 q 0 119 0 0 l 0 789 q 119 909 0 909 m 304 526 l 304 382 q 439 274 317 366 l 439 401 l 377 453 l 439 510 l 439 635 q 304 526 347 564 m 469 526 l 469 382 q 605 274 486 363 l 605 401 l 543 453 l 543 458 q 605 510 583 485 l 605 635 q 469 526 475 535 z "},"¬":{"ha":929,"x_min":0,"x_max":909,"o":"m 119 909 l 789 909 q 909 789 909 909 l 909 119 q 789 0 909 0 l 119 0 q 0 119 0 0 l 0 789 q 119 909 0 909 m 244 600 l 244 472 l 534 472 q 540 467 540 471 l 540 312 l 665 312 l 665 600 l 244 600 z "},"®":{"ha":929,"x_min":0,"x_max":909,"o":"m 119 909 l 789 909 q 909 789 909 909 l 909 119 q 789 0 909 0 l 119 0 q 0 119 0 0 l 0 789 q 119 909 0 909 m 138 453 q 320 168 138 269 q 437 141 386 141 l 464 141 q 732 312 631 141 q 765 453 765 377 q 559 749 765 657 q 469 765 506 765 l 439 765 q 201 640 302 765 q 138 453 138 553 m 450 670 q 654 515 595 670 q 662 458 662 487 l 662 450 q 515 247 662 309 q 450 236 488 239 q 260 366 326 236 q 241 456 241 410 q 366 651 241 581 q 450 670 419 670 m 328 610 l 328 293 l 399 293 q 404 298 404 293 l 404 415 q 410 420 405 420 l 431 420 q 499 293 435 420 l 578 293 l 578 296 q 510 426 510 418 q 589 483 568 426 q 591 513 591 501 q 472 610 591 610 l 328 610 m 410 553 l 461 553 q 513 521 513 553 q 456 477 513 477 l 410 477 q 404 483 404 477 l 404 548 q 410 553 405 553 z "},"¯":{"ha":929,"x_min":0,"x_max":909,"o":"m 119 909 l 789 909 q 909 789 909 909 l 909 119 q 789 0 909 0 l 119 0 q 0 119 0 0 l 0 789 q 119 909 0 909 m 312 860 l 312 784 l 597 784 l 597 860 l 312 860 z "},"°":{"ha":929,"x_min":0,"x_max":909,"o":"m 119 909 l 789 909 q 909 789 909 909 l 909 119 q 789 0 909 0 l 119 0 q 0 119 0 0 l 0 789 q 119 909 0 909 m 328 749 l 328 746 q 450 624 343 624 l 456 624 q 578 741 557 624 l 578 751 q 486 868 578 838 q 464 871 475 871 l 442 871 q 334 784 365 871 q 328 749 328 772 m 453 808 q 513 743 507 808 q 458 689 501 689 l 442 689 q 393 743 406 689 l 393 751 q 453 808 393 800 z "},"±":{"ha":929,"x_min":0,"x_max":909,"o":"m 119 909 l 789 909 q 909 789 909 909 l 909 119 q 789 0 909 0 l 119 0 q 0 119 0 0 l 0 789 q 119 909 0 909 m 391 665 l 391 602 q 385 597 391 597 l 244 597 l 244 469 l 385 469 q 391 464 391 469 l 391 401 l 518 401 l 518 464 q 524 469 519 469 l 665 469 l 665 591 l 667 597 l 524 597 q 518 602 518 597 l 518 665 l 391 665 m 244 369 l 244 241 l 662 241 q 667 247 667 241 l 667 369 l 244 369 z "},"²":{"ha":929,"x_min":0,"x_max":909,"o":"m 119 909 l 789 909 q 909 789 909 909 l 909 119 q 789 0 909 0 l 119 0 q 0 119 0 0 l 0 789 q 119 909 0 909 m 296 722 l 399 722 q 456 795 399 795 q 499 757 499 787 l 499 746 q 412 678 499 720 q 290 534 290 611 l 290 518 l 613 518 q 618 524 618 518 l 618 605 l 448 605 l 448 608 q 551 659 448 612 q 613 760 613 705 l 613 768 q 540 863 613 835 q 475 871 505 871 l 445 871 q 307 787 342 871 q 296 722 296 756 z "},"³":{"ha":929,"x_min":0,"x_max":909,"o":"m 119 909 l 789 909 q 909 789 909 909 l 909 119 q 789 0 909 0 l 119 0 q 0 119 0 0 l 0 789 q 119 909 0 909 m 301 751 l 404 751 q 456 795 404 788 q 505 760 505 795 q 461 732 505 739 l 423 732 l 423 667 l 453 667 q 505 629 505 667 q 458 591 505 599 l 442 591 q 393 648 400 591 l 290 648 l 290 646 q 448 513 290 513 l 456 513 q 616 597 591 513 l 618 616 q 567 700 618 680 q 562 705 562 700 l 562 708 q 608 776 600 708 q 486 871 608 852 l 437 871 q 304 779 338 871 q 301 751 304 775 z "},"´":{"ha":929,"x_min":0,"x_max":909,"o":"m 119 909 l 789 909 q 909 789 909 909 l 909 119 q 789 0 909 0 l 119 0 q 0 119 0 0 l 0 789 q 119 909 0 909 m 317 732 l 429 732 q 572 857 562 844 l 401 857 l 317 732 z "},"µ":{"ha":929,"x_min":0,"x_max":909,"o":"m 119 909 l 789 909 q 909 789 909 909 l 909 119 q 789 0 909 0 l 119 0 q 0 119 0 0 l 0 789 q 119 909 0 909 m 228 743 l 228 168 l 393 168 l 393 293 q 448 307 393 298 q 518 361 485 323 l 521 361 l 521 309 l 681 309 l 681 743 l 515 743 l 515 521 q 450 429 515 429 q 393 502 393 429 l 393 743 l 228 743 z "},"¶":{"ha":929,"x_min":0,"x_max":909,"o":"m 119 909 l 789 909 q 909 789 909 909 l 909 119 q 789 0 909 0 l 119 0 q 0 119 0 0 l 0 789 q 119 909 0 909 m 220 689 l 220 665 q 377 534 220 556 l 401 534 q 407 529 407 534 l 407 81 l 518 81 l 518 735 q 524 741 519 741 l 570 741 q 575 735 575 740 l 575 81 l 689 81 l 689 825 l 396 825 q 225 730 259 825 q 220 689 220 704 z "},"·":{"ha":929,"x_min":0,"x_max":909,"o":"m 119 909 l 789 909 q 909 789 909 909 l 909 119 q 789 0 909 0 l 119 0 q 0 119 0 0 l 0 789 q 119 909 0 909 m 353 456 q 450 355 366 355 l 456 355 q 553 456 538 355 q 450 556 553 541 q 353 464 376 556 l 353 456 z "},"¸":{"ha":929,"x_min":0,"x_max":909,"o":"m 119 909 l 789 909 q 909 789 909 909 l 909 119 q 789 0 909 0 l 119 0 q 0 119 0 0 l 0 789 q 119 909 0 909 m 429 244 q 382 165 429 238 q 404 146 404 150 q 439 155 418 155 q 475 122 475 151 q 437 95 475 100 l 426 95 q 358 111 406 95 q 342 73 350 96 q 456 49 407 49 q 564 117 564 59 q 567 125 564 125 q 496 193 567 180 l 453 193 l 448 190 l 445 195 q 477 244 452 199 l 429 244 z "},"¹":{"ha":929,"x_min":0,"x_max":909,"o":"m 119 909 l 789 909 q 909 789 909 909 l 909 119 q 789 0 909 0 l 119 0 q 0 119 0 0 l 0 789 q 119 909 0 909 m 450 865 q 350 789 436 789 l 336 789 l 336 716 l 420 716 q 426 711 426 715 l 426 518 l 537 518 l 537 865 l 450 865 z "},"º":{"ha":929,"x_min":0,"x_max":909,"o":"m 119 909 l 789 909 q 909 789 909 909 l 909 119 q 789 0 909 0 l 119 0 q 0 119 0 0 l 0 789 q 119 909 0 909 m 298 732 q 396 605 298 640 q 453 597 428 597 q 600 681 558 597 q 608 730 608 711 l 608 741 q 472 871 608 853 l 437 871 q 304 770 334 871 q 298 732 298 755 m 450 800 l 453 800 q 494 754 494 800 l 494 716 q 458 670 494 677 l 448 670 q 412 727 417 670 l 412 743 q 450 800 412 800 z "},"»":{"ha":929,"x_min":0,"x_max":909,"o":"m 119 909 l 789 909 q 909 789 909 909 l 909 119 q 789 0 909 0 l 119 0 q 0 119 0 0 l 0 789 q 119 909 0 909 m 304 635 l 304 507 l 366 453 l 304 401 l 304 274 q 439 382 383 332 l 439 526 q 304 635 433 535 m 469 635 l 469 507 l 532 453 l 469 401 l 469 274 q 605 382 578 356 l 605 526 q 469 635 602 532 z "},"¼":{"ha":929,"x_min":0,"x_max":909,"o":"m 119 909 l 789 909 q 909 789 909 909 l 909 119 q 789 0 909 0 l 119 0 q 0 119 0 0 l 0 789 q 119 909 0 909 m 545 800 l 222 174 l 309 174 q 597 724 319 179 q 637 800 610 743 l 545 800 m 220 779 q 152 705 220 729 q 106 700 115 700 l 106 627 l 195 627 l 195 431 l 309 431 l 309 779 l 220 779 m 469 358 l 469 266 l 632 266 q 637 260 637 265 l 637 201 l 635 195 l 749 195 l 749 260 q 754 266 749 266 l 800 266 l 800 350 l 754 350 q 749 355 749 350 l 749 543 l 643 543 q 469 358 475 368 m 635 445 l 637 445 l 637 355 q 632 350 637 350 l 551 350 q 545 355 545 350 l 635 445 z "},"½":{"ha":929,"x_min":0,"x_max":909,"o":"m 119 909 l 789 909 q 909 789 909 909 l 909 119 q 789 0 909 0 l 119 0 q 0 119 0 0 l 0 789 q 119 909 0 909 m 529 800 q 206 174 493 725 l 298 174 l 621 800 l 529 800 m 203 779 q 144 708 203 728 q 90 700 113 700 l 90 632 q 95 627 90 627 l 179 627 l 179 431 l 293 431 l 293 779 l 203 779 m 494 404 l 494 396 l 591 396 q 602 439 596 396 q 643 469 622 469 l 662 469 q 697 431 688 469 l 697 423 q 586 342 697 395 q 486 195 486 282 l 814 195 l 814 282 l 646 282 l 646 285 q 741 331 661 296 q 811 445 811 376 q 659 548 811 548 l 651 548 q 496 439 523 548 q 494 404 494 422 z "},"¾":{"ha":929,"x_min":0,"x_max":909,"o":"m 119 909 l 789 909 q 909 789 909 909 l 909 119 q 789 0 909 0 l 119 0 q 0 119 0 0 l 0 789 q 119 909 0 909 m 274 174 l 361 174 q 689 800 364 174 l 600 800 q 274 174 557 727 m 73 665 l 176 665 q 225 708 176 702 q 274 675 274 703 l 274 673 q 209 643 274 643 l 193 646 l 193 578 l 198 581 l 209 581 q 274 548 274 581 l 274 540 q 222 502 274 509 q 165 548 165 510 l 165 562 l 60 562 l 62 556 l 62 548 q 157 431 62 460 q 209 426 190 426 l 241 426 q 385 507 359 426 q 388 529 388 518 q 336 613 388 593 q 331 618 331 613 q 377 675 377 636 l 377 694 q 255 784 377 762 l 212 784 q 73 678 98 784 l 73 665 m 518 358 l 518 266 l 678 266 q 684 260 684 265 l 684 195 l 798 195 l 798 260 q 803 266 798 266 l 849 266 l 849 350 l 803 350 q 798 355 798 350 l 798 543 l 692 543 q 518 358 519 364 m 684 445 l 684 355 q 678 350 684 350 l 600 350 q 594 355 594 350 q 684 445 682 445 z "},"¿":{"ha":929,"x_min":0,"x_max":909,"o":"m 119 909 l 789 909 q 909 789 909 909 l 909 119 q 789 0 909 0 l 119 0 q 0 119 0 0 l 0 789 q 119 909 0 909 m 377 760 l 377 594 l 551 594 l 551 760 l 377 760 m 385 543 l 385 529 q 279 434 385 478 q 225 323 225 395 q 385 155 225 195 q 439 149 412 149 l 461 149 q 678 326 637 149 q 681 361 678 327 l 507 361 l 507 353 q 456 290 507 290 l 442 290 q 404 331 410 290 q 483 396 404 368 q 543 543 543 433 l 385 543 z "},"À":{"ha":929,"x_min":0,"x_max":909,"o":"m 119 909 l 789 909 q 909 789 909 909 l 909 119 q 789 0 909 0 l 119 0 q 0 119 0 0 l 0 789 q 119 909 0 909 m 282 838 q 426 713 423 713 l 537 713 l 537 716 q 453 838 476 810 l 282 838 m 363 670 q 144 73 347 620 l 326 73 q 355 155 330 73 l 361 157 l 543 157 q 572 73 549 155 l 762 73 q 545 670 594 532 l 363 670 m 458 467 q 510 288 461 450 l 505 285 l 401 285 l 396 288 l 453 467 l 458 467 z "},"Á":{"ha":929,"x_min":0,"x_max":909,"o":"m 119 909 l 789 909 q 909 789 909 909 l 909 119 q 789 0 909 0 l 119 0 q 0 119 0 0 l 0 789 q 119 909 0 909 m 369 716 l 369 713 l 480 713 q 624 838 483 713 l 453 838 q 369 716 446 834 m 363 670 q 144 73 347 620 l 326 73 q 355 155 330 73 l 361 157 l 543 157 q 572 73 549 155 l 762 73 q 545 670 594 532 l 363 670 m 458 467 q 510 288 461 450 l 505 285 l 401 285 l 396 288 l 453 467 l 458 467 z "},"Â":{"ha":929,"x_min":0,"x_max":909,"o":"m 119 909 l 789 909 q 909 789 909 909 l 909 119 q 789 0 909 0 l 119 0 q 0 119 0 0 l 0 789 q 119 909 0 909 m 285 713 l 404 713 q 456 776 452 776 q 499 713 494 723 l 624 713 q 524 838 527 829 l 388 838 q 285 713 371 824 m 363 670 q 144 73 347 620 l 326 73 q 355 155 330 73 l 361 157 l 543 157 q 572 73 549 155 l 762 73 q 545 670 594 532 l 363 670 m 458 467 q 510 288 461 450 l 505 285 l 401 285 l 396 288 l 453 467 l 458 467 z "},"Ã":{"ha":929,"x_min":0,"x_max":909,"o":"m 119 909 l 789 909 q 909 789 909 909 l 909 119 q 789 0 909 0 l 119 0 q 0 119 0 0 l 0 789 q 119 909 0 909 m 610 833 l 548 833 q 510 798 548 804 q 382 833 416 833 q 290 722 302 833 l 290 713 l 355 713 q 388 749 366 749 l 396 749 q 515 719 490 719 l 524 719 q 616 830 604 719 l 616 836 l 610 833 m 363 670 l 146 73 l 331 73 q 361 157 352 157 l 543 157 q 572 73 550 157 l 762 73 l 762 76 q 545 670 738 139 l 363 670 m 456 467 l 458 467 l 510 288 l 505 285 l 401 285 l 396 288 q 456 467 450 462 z "},"Ä":{"ha":929,"x_min":0,"x_max":909,"o":"m 119 909 l 789 909 q 909 789 909 909 l 909 119 q 789 0 909 0 l 119 0 q 0 119 0 0 l 0 789 q 119 909 0 909 m 288 825 l 288 719 l 429 719 l 429 825 l 288 825 m 477 825 l 477 719 l 618 719 l 618 825 l 477 825 m 363 670 q 144 73 358 651 l 326 73 q 355 157 331 73 l 543 157 q 572 73 549 155 l 762 73 q 545 670 648 382 l 363 670 m 456 467 l 458 467 q 510 288 458 458 l 505 285 l 401 285 q 396 290 396 285 q 456 467 450 464 z "},"Å":{"ha":929,"x_min":0,"x_max":909,"o":"m 119 909 l 789 909 q 909 789 909 909 l 909 119 q 789 0 909 0 l 119 0 q 0 119 0 0 l 0 789 q 119 909 0 909 m 361 773 q 453 684 361 696 l 456 684 q 548 779 534 684 q 456 871 532 871 l 453 871 q 361 795 384 871 l 361 773 m 458 822 q 499 779 486 822 q 450 732 499 739 q 410 773 410 745 l 410 779 q 456 822 410 815 l 458 822 m 363 670 l 146 73 l 331 73 q 361 157 353 157 l 543 157 q 572 73 551 157 l 762 73 l 545 670 l 363 670 m 453 467 l 458 467 l 510 288 l 505 285 l 401 285 l 396 288 q 453 467 410 327 z "},"Æ":{"ha":929,"x_min":0,"x_max":909,"o":"m 119 909 l 789 909 q 909 789 909 909 l 909 119 q 789 0 909 0 l 119 0 q 0 119 0 0 l 0 789 q 119 909 0 909 m 24 155 l 212 155 q 252 241 215 156 l 423 241 q 429 236 429 241 l 429 155 l 884 155 l 884 307 l 608 307 q 602 312 602 307 l 602 377 q 608 382 603 382 l 854 382 l 854 524 l 608 524 q 602 529 602 524 l 602 594 q 608 600 603 600 l 873 600 l 873 751 l 298 751 q 24 155 286 735 m 407 600 l 423 600 q 429 594 429 599 l 429 369 q 423 363 429 363 l 307 363 l 301 366 q 407 600 395 583 z "},"Ç":{"ha":929,"x_min":0,"x_max":909,"o":"m 119 909 l 789 909 q 909 789 909 909 l 909 119 q 789 0 909 0 l 119 0 q 0 119 0 0 l 0 789 q 119 909 0 909 m 165 548 l 165 543 q 355 247 165 326 q 418 231 412 235 l 380 165 l 401 146 q 437 155 415 155 l 439 155 q 469 127 469 149 l 469 122 q 434 95 465 95 l 426 95 q 353 111 403 95 l 353 109 q 336 73 353 104 q 453 49 408 49 q 562 119 562 60 l 562 125 q 510 190 562 174 q 486 193 495 193 l 450 193 l 445 190 q 442 193 445 193 q 469 231 463 229 l 477 231 q 716 374 638 231 q 741 472 741 421 l 741 477 l 564 477 q 545 426 561 477 q 461 377 514 377 q 358 467 389 377 q 350 532 350 501 l 350 559 q 445 708 350 680 l 461 708 q 553 643 530 708 q 564 618 560 618 l 738 618 l 738 621 q 656 798 738 712 q 467 857 578 857 q 195 692 277 857 q 165 548 165 627 z "},"È":{"ha":929,"x_min":0,"x_max":909,"o":"m 119 909 l 789 909 q 909 789 909 909 l 909 119 q 789 0 909 0 l 119 0 q 0 119 0 0 l 0 789 q 119 909 0 909 m 279 838 q 423 713 408 723 l 534 713 q 450 838 456 836 l 279 838 m 203 670 l 203 73 l 708 73 l 708 225 l 393 225 q 388 231 388 225 l 388 296 q 393 301 389 301 l 670 301 l 670 442 l 393 442 q 388 448 388 442 l 388 513 q 393 518 389 518 l 697 518 l 697 670 l 203 670 z "},"É":{"ha":929,"x_min":0,"x_max":909,"o":"m 119 909 l 789 909 q 909 789 909 909 l 909 119 q 789 0 909 0 l 119 0 q 0 119 0 0 l 0 789 q 119 909 0 909 m 366 716 l 366 713 l 477 713 q 621 836 606 826 l 621 838 l 450 838 q 366 716 444 834 m 203 670 l 203 73 l 708 73 l 708 225 l 393 225 q 388 231 388 225 l 388 296 q 393 301 389 301 l 670 301 l 670 442 l 393 442 q 388 448 388 442 l 388 513 q 393 518 389 518 l 697 518 l 697 670 l 203 670 z "},"Ê":{"ha":929,"x_min":0,"x_max":909,"o":"m 119 909 l 789 909 q 909 789 909 909 l 909 119 q 789 0 909 0 l 119 0 q 0 119 0 0 l 0 789 q 119 909 0 909 m 380 838 l 282 713 l 401 713 l 450 776 l 499 713 l 618 713 q 515 838 537 819 l 380 838 m 203 670 l 203 73 l 708 73 l 708 225 l 393 225 q 388 231 388 225 l 388 296 q 393 301 389 301 l 670 301 l 670 442 l 393 442 q 388 448 388 442 l 388 513 q 393 518 389 518 l 697 518 l 697 670 l 203 670 z "},"Ë":{"ha":929,"x_min":0,"x_max":909,"o":"m 119 909 l 789 909 q 909 789 909 909 l 909 119 q 789 0 909 0 l 119 0 q 0 119 0 0 l 0 789 q 119 909 0 909 m 282 825 l 282 719 l 426 719 l 426 825 l 282 825 m 475 825 l 475 719 l 616 719 l 616 825 l 475 825 m 203 670 l 203 73 l 705 73 l 705 225 l 391 225 q 385 231 385 225 l 385 296 q 391 301 386 301 l 667 301 l 667 442 l 391 442 q 385 448 385 442 l 385 513 q 391 518 386 518 l 697 518 l 697 670 l 203 670 z "},"Ì":{"ha":929,"x_min":0,"x_max":909,"o":"m 119 909 l 789 909 q 909 789 909 909 l 909 119 q 789 0 909 0 l 119 0 q 0 119 0 0 l 0 789 q 119 909 0 909 m 285 838 q 426 713 286 835 l 540 713 q 458 838 460 831 l 285 838 m 363 670 l 363 73 l 545 73 l 545 670 l 363 670 z "},"Í":{"ha":929,"x_min":0,"x_max":909,"o":"m 119 909 l 789 909 q 909 789 909 909 l 909 119 q 789 0 909 0 l 119 0 q 0 119 0 0 l 0 789 q 119 909 0 909 m 450 838 q 369 713 449 831 l 475 713 q 578 798 488 713 q 624 838 614 825 l 450 838 m 363 670 l 363 73 l 545 73 l 545 670 l 363 670 z "},"Î":{"ha":929,"x_min":0,"x_max":909,"o":"m 119 909 l 789 909 q 909 789 909 909 l 909 119 q 789 0 909 0 l 119 0 q 0 119 0 0 l 0 789 q 119 909 0 909 m 285 713 l 410 713 q 453 773 410 720 l 456 773 l 505 713 l 624 713 q 521 838 529 833 l 388 838 q 285 713 383 836 m 363 670 l 363 73 l 545 73 l 545 670 l 363 670 z "},"Ï":{"ha":929,"x_min":0,"x_max":909,"o":"m 119 909 l 789 909 q 909 789 909 909 l 909 119 q 789 0 909 0 l 119 0 q 0 119 0 0 l 0 789 q 119 909 0 909 m 288 825 l 288 719 l 431 719 l 431 825 l 288 825 m 480 825 l 480 719 l 616 719 l 621 716 l 621 825 l 480 825 m 363 670 l 363 73 l 545 73 l 545 670 l 363 670 z "},"Ð":{"ha":929,"x_min":0,"x_max":909,"o":"m 119 909 l 789 909 q 909 789 909 909 l 909 119 q 789 0 909 0 l 119 0 q 0 119 0 0 l 0 789 q 119 909 0 909 m 193 751 l 193 521 q 187 515 193 515 l 144 515 l 146 510 l 146 420 l 144 415 l 187 415 q 193 410 193 414 l 193 155 l 464 155 q 743 323 678 155 q 765 453 765 393 q 624 724 765 649 q 499 751 572 751 l 193 751 m 382 600 l 431 600 q 564 529 531 600 q 581 453 581 496 q 502 315 581 350 q 445 307 473 307 l 382 307 q 377 312 377 307 l 377 415 l 488 415 l 488 510 l 491 515 l 382 515 q 377 521 377 515 l 377 594 q 382 600 378 600 z "},"Ñ":{"ha":929,"x_min":0,"x_max":909,"o":"m 119 909 l 789 909 q 909 789 909 909 l 909 119 q 789 0 909 0 l 119 0 q 0 119 0 0 l 0 789 q 119 909 0 909 m 548 836 q 513 800 545 800 q 388 833 416 833 l 380 833 q 290 727 303 833 l 290 716 l 355 716 q 391 751 367 751 q 518 719 501 719 q 618 836 604 719 l 548 836 m 184 673 l 184 73 l 358 73 l 358 399 l 363 399 q 548 73 526 100 l 719 73 q 724 79 724 73 l 724 673 l 551 673 l 551 355 l 548 355 q 374 673 530 376 l 184 673 z "},"Ò":{"ha":929,"x_min":0,"x_max":909,"o":"m 119 909 l 789 909 q 909 789 909 909 l 909 119 q 789 0 909 0 l 119 0 q 0 119 0 0 l 0 789 q 119 909 0 909 m 285 844 q 429 719 414 728 l 540 719 q 458 844 462 835 l 285 844 m 152 388 l 152 361 q 309 98 152 190 q 456 65 374 65 q 743 277 670 65 q 757 382 757 322 q 575 670 757 585 q 450 692 515 692 q 163 477 240 692 q 152 388 152 428 m 450 543 l 458 543 q 567 439 539 543 q 572 393 572 418 l 572 363 q 491 220 572 255 q 458 214 472 214 l 448 214 q 342 312 372 214 q 334 380 336 334 q 429 540 334 512 q 450 543 439 543 z "},"Ó":{"ha":929,"x_min":0,"x_max":909,"o":"m 119 909 l 789 909 q 909 789 909 909 l 909 119 q 789 0 909 0 l 119 0 q 0 119 0 0 l 0 789 q 119 909 0 909 m 369 722 l 369 719 l 472 719 q 594 819 486 719 q 624 841 621 841 l 624 844 l 453 844 q 369 722 446 840 m 152 388 l 152 361 q 309 98 152 190 q 456 65 374 65 q 743 277 670 65 q 757 382 757 322 q 575 670 757 585 q 450 692 515 692 q 163 477 240 692 q 152 388 152 428 m 450 543 l 458 543 q 567 439 539 543 q 572 393 572 418 l 572 363 q 491 220 572 255 q 458 214 472 214 l 448 214 q 342 312 372 214 q 334 380 336 334 q 429 540 334 512 q 450 543 439 543 z "},"Ô":{"ha":929,"x_min":0,"x_max":909,"o":"m 119 909 l 789 909 q 909 789 909 909 l 909 119 q 789 0 909 0 l 119 0 q 0 119 0 0 l 0 789 q 119 909 0 909 m 382 844 q 285 719 374 829 l 404 719 q 450 781 414 726 l 453 781 l 505 719 l 624 719 q 521 844 536 831 l 382 844 m 152 388 l 152 361 q 309 98 152 190 q 456 65 374 65 q 743 277 670 65 q 757 382 757 322 q 575 670 757 585 q 450 692 515 692 q 163 477 240 692 q 152 388 152 428 m 450 543 l 458 543 q 567 439 539 543 q 572 393 572 418 l 572 363 q 491 220 572 255 q 458 214 472 214 l 448 214 q 342 312 372 214 q 334 380 336 334 q 429 540 334 512 q 450 543 439 543 z "},"Õ":{"ha":929,"x_min":0,"x_max":909,"o":"m 119 909 l 789 909 q 909 789 909 909 l 909 119 q 789 0 909 0 l 119 0 q 0 119 0 0 l 0 789 q 119 909 0 909 m 548 841 q 518 806 543 806 l 510 806 q 388 838 415 838 l 380 838 q 290 732 303 838 l 290 719 l 355 719 q 391 757 366 757 q 502 727 491 727 q 524 724 513 724 q 616 836 616 741 l 616 841 l 548 841 m 152 388 l 152 361 q 309 98 152 190 q 456 65 374 65 q 743 277 670 65 q 757 382 757 322 q 575 670 757 585 q 450 692 515 692 q 163 477 240 692 q 152 388 152 428 m 450 543 l 458 543 q 567 439 539 543 q 572 393 572 418 l 572 363 q 491 220 572 255 q 458 214 472 214 l 448 214 q 342 312 372 214 q 334 380 336 334 q 429 540 334 512 q 450 543 439 543 z "},"Ö":{"ha":929,"x_min":0,"x_max":909,"o":"m 119 909 l 789 909 q 909 789 909 909 l 909 119 q 789 0 909 0 l 119 0 q 0 119 0 0 l 0 789 q 119 909 0 909 m 288 833 l 288 724 l 431 724 l 429 730 l 429 833 l 288 833 m 480 833 l 480 730 l 477 724 l 621 724 l 621 833 l 480 833 m 152 388 l 152 361 q 309 98 152 190 q 456 65 374 65 q 743 277 670 65 q 757 382 757 322 q 575 670 757 585 q 450 692 515 692 q 163 477 240 692 q 152 388 152 428 m 450 543 l 458 543 q 567 439 539 543 q 572 393 572 418 l 572 363 q 491 220 572 255 q 458 214 472 214 l 448 214 q 342 312 372 214 q 334 380 336 334 q 429 540 334 512 q 450 543 439 543 z "},"×":{"ha":929,"x_min":0,"x_max":909,"o":"m 119 909 l 789 909 q 909 789 909 909 l 909 119 q 789 0 909 0 l 119 0 q 0 119 0 0 l 0 789 q 119 909 0 909 m 334 662 l 244 570 q 361 453 250 568 l 244 334 l 334 247 l 450 361 l 453 361 l 570 247 q 662 336 662 334 q 545 453 656 338 l 545 456 l 659 572 q 570 662 659 576 q 453 545 568 656 l 334 662 z "},"Ø":{"ha":929,"x_min":0,"x_max":909,"o":"m 119 909 l 789 909 q 909 789 909 909 l 909 119 q 789 0 909 0 l 119 0 q 0 119 0 0 l 0 789 q 119 909 0 909 m 716 779 q 648 705 652 705 q 469 768 562 768 l 439 768 q 174 586 259 768 q 152 472 152 522 l 152 439 q 225 241 152 332 l 225 239 q 155 160 200 208 q 193 127 190 127 l 263 203 q 434 144 349 144 l 469 144 q 735 326 648 144 q 757 453 757 393 l 757 458 q 686 667 757 578 l 686 670 l 757 749 q 716 779 724 779 m 453 621 q 534 581 505 621 q 350 377 533 573 l 345 377 q 334 456 336 410 q 418 616 334 578 q 453 621 450 621 m 562 532 q 572 469 572 509 l 572 445 q 486 296 572 327 q 453 290 464 290 q 377 326 408 290 l 377 328 q 562 532 493 460 z "},"Ù":{"ha":929,"x_min":0,"x_max":909,"o":"m 119 909 l 789 909 q 909 789 909 909 l 909 119 q 789 0 909 0 l 119 0 q 0 119 0 0 l 0 789 q 119 909 0 909 m 285 844 q 429 719 367 770 l 540 719 l 458 844 l 285 844 m 182 678 l 182 304 q 456 65 182 65 q 708 198 657 65 q 727 331 727 244 l 727 678 l 543 678 l 543 328 q 461 214 543 214 l 448 214 q 372 271 391 214 q 363 407 363 302 l 363 678 l 182 678 z "},"Ú":{"ha":929,"x_min":0,"x_max":909,"o":"m 119 909 l 789 909 q 909 789 909 909 l 909 119 q 789 0 909 0 l 119 0 q 0 119 0 0 l 0 789 q 119 909 0 909 m 369 722 l 369 719 l 480 719 q 624 841 609 831 l 624 844 l 453 844 q 369 722 449 844 m 182 678 l 182 304 q 456 65 182 65 q 708 198 657 65 q 727 331 727 244 l 727 678 l 543 678 l 543 328 q 461 214 543 214 l 448 214 q 372 271 391 214 q 363 407 363 302 l 363 678 l 182 678 z "},"Û":{"ha":929,"x_min":0,"x_max":909,"o":"m 119 909 l 789 909 q 909 789 909 909 l 909 119 q 789 0 909 0 l 119 0 q 0 119 0 0 l 0 789 q 119 909 0 909 m 382 844 q 285 719 374 829 l 404 719 q 450 781 422 736 l 458 781 q 505 719 458 775 l 624 719 q 521 844 551 814 l 382 844 m 182 678 l 182 304 q 456 65 182 65 q 708 198 657 65 q 727 331 727 244 l 727 678 l 543 678 l 543 328 q 461 214 543 214 l 448 214 q 372 271 391 214 q 363 407 363 302 l 363 678 l 182 678 z "},"Ü":{"ha":929,"x_min":0,"x_max":909,"o":"m 119 909 l 789 909 q 909 789 909 909 l 909 119 q 789 0 909 0 l 119 0 q 0 119 0 0 l 0 789 q 119 909 0 909 m 288 833 l 288 724 l 431 724 l 429 730 l 429 833 l 288 833 m 480 833 l 480 730 l 477 724 l 621 724 l 621 833 l 480 833 m 182 678 l 182 304 q 456 65 182 65 q 708 198 657 65 q 727 331 727 244 l 727 678 l 543 678 l 543 328 q 461 214 543 214 l 448 214 q 372 271 391 214 q 363 407 363 302 l 363 678 l 182 678 z "},"Ý":{"ha":929,"x_min":0,"x_max":909,"o":"m 119 909 l 789 909 q 909 789 909 909 l 909 119 q 789 0 909 0 l 119 0 q 0 119 0 0 l 0 789 q 119 909 0 909 m 369 732 l 480 732 q 624 857 619 850 l 453 857 q 369 732 448 854 m 152 692 l 152 689 q 361 307 361 315 l 361 92 l 545 92 l 545 309 q 757 686 545 318 l 757 692 l 562 692 q 456 475 535 648 l 450 475 q 350 692 361 680 l 152 692 z "},"Þ":{"ha":929,"x_min":0,"x_max":909,"o":"m 119 909 l 789 909 q 909 789 909 909 l 909 119 q 789 0 909 0 l 119 0 q 0 119 0 0 l 0 789 q 119 909 0 909 m 190 751 l 190 155 l 374 155 l 374 260 q 380 266 375 266 l 499 266 q 713 420 669 266 l 719 477 q 589 667 719 608 q 507 681 547 681 l 380 681 q 374 686 374 681 l 374 751 l 190 751 m 380 529 l 472 529 q 545 469 545 529 q 458 407 545 407 l 380 407 q 374 412 374 407 l 374 524 q 380 529 375 529 z "},"ß":{"ha":929,"x_min":0,"x_max":909,"o":"m 119 909 l 789 909 q 909 789 909 909 l 909 119 q 789 0 909 0 l 119 0 q 0 119 0 0 l 0 789 q 119 909 0 909 m 220 537 l 220 152 l 385 152 l 385 559 q 445 632 385 632 q 502 586 502 626 l 502 570 q 439 521 502 521 l 420 521 l 420 429 l 423 429 q 524 361 524 429 l 524 347 q 461 274 514 274 l 448 274 l 420 277 l 420 152 q 480 146 444 146 l 505 146 q 681 271 632 146 q 689 328 689 300 l 689 336 q 610 472 689 434 q 589 483 589 479 l 589 486 q 656 602 656 520 q 469 762 656 734 l 431 762 q 239 643 292 762 q 220 537 220 602 z "},"à":{"ha":929,"x_min":0,"x_max":909,"o":"m 119 909 l 789 909 q 909 789 909 909 l 909 119 q 789 0 909 0 l 119 0 q 0 119 0 0 l 0 789 q 119 909 0 909 m 288 795 q 426 673 288 792 l 540 673 q 456 795 468 786 l 288 795 m 239 499 l 393 499 q 450 543 393 543 l 456 543 q 510 505 510 543 l 510 499 q 418 456 510 463 q 263 412 327 449 q 220 326 220 372 l 220 304 q 315 190 220 224 q 363 184 342 184 l 385 184 q 507 231 460 184 l 507 233 l 513 233 q 518 195 518 199 l 686 195 l 686 198 q 667 309 667 226 l 667 502 q 600 618 667 591 q 464 640 553 640 l 461 640 q 260 570 304 640 q 239 499 239 534 m 510 388 l 510 358 q 450 282 503 282 l 434 282 q 388 320 388 290 l 388 328 q 496 382 388 363 q 510 388 496 387 z "},"á":{"ha":929,"x_min":0,"x_max":909,"o":"m 119 909 l 789 909 q 909 789 909 909 l 909 119 q 789 0 909 0 l 119 0 q 0 119 0 0 l 0 789 q 119 909 0 909 m 450 795 q 372 673 446 785 l 483 673 q 624 795 511 693 l 450 795 m 239 499 l 393 499 q 450 543 393 543 l 456 543 q 510 505 510 543 l 510 499 q 418 456 510 463 q 263 412 327 449 q 220 326 220 372 l 220 304 q 315 190 220 224 q 363 184 342 184 l 385 184 q 507 231 460 184 l 507 233 l 513 233 q 518 195 518 199 l 686 195 l 686 198 q 667 309 667 226 l 667 502 q 600 618 667 591 q 464 640 553 640 l 461 640 q 260 570 304 640 q 239 499 239 534 m 510 388 l 510 358 q 450 282 503 282 l 434 282 q 388 320 388 290 l 388 328 q 496 382 388 363 q 510 388 496 387 z "},"â":{"ha":929,"x_min":0,"x_max":909,"o":"m 119 909 l 789 909 q 909 789 909 909 l 909 119 q 789 0 909 0 l 119 0 q 0 119 0 0 l 0 789 q 119 909 0 909 m 288 673 l 407 673 l 456 732 l 505 673 l 624 673 q 524 795 583 728 l 388 795 q 288 673 385 795 m 239 499 l 393 499 q 450 543 393 543 l 456 543 q 510 505 510 543 l 510 499 q 418 456 510 463 q 263 412 327 449 q 220 326 220 372 l 220 304 q 315 190 220 224 q 363 184 342 184 l 385 184 q 507 231 460 184 l 507 233 l 513 233 q 518 195 518 199 l 686 195 l 686 198 q 667 309 667 226 l 667 502 q 600 618 667 591 q 464 640 553 640 l 461 640 q 260 570 304 640 q 239 499 239 534 m 510 388 l 510 358 q 450 282 503 282 l 434 282 q 388 320 388 290 l 388 328 q 496 382 388 363 q 510 388 496 387 z "},"ã":{"ha":929,"x_min":0,"x_max":909,"o":"m 119 909 l 789 909 q 909 789 909 909 l 909 119 q 789 0 909 0 l 119 0 q 0 119 0 0 l 0 789 q 119 909 0 909 m 551 792 q 518 757 544 757 l 513 757 q 391 789 418 789 l 382 789 q 298 722 323 789 q 293 681 293 696 l 293 673 l 358 673 q 393 708 368 708 q 505 678 494 678 l 524 675 q 618 792 606 675 l 551 792 m 239 499 l 393 499 q 450 543 393 543 l 456 543 q 510 505 510 543 l 510 499 q 418 456 510 463 q 263 412 327 449 q 220 326 220 372 l 220 304 q 315 190 220 224 q 363 184 342 184 l 385 184 q 507 231 460 184 l 507 233 l 513 233 q 518 195 518 199 l 686 195 l 686 198 q 667 309 667 226 l 667 502 q 600 618 667 591 q 464 640 553 640 l 461 640 q 260 570 304 640 q 239 499 239 534 m 510 388 l 510 358 q 450 282 503 282 l 434 282 q 388 320 388 290 l 388 328 q 496 382 388 363 q 510 388 496 387 z "},"ä":{"ha":929,"x_min":0,"x_max":909,"o":"m 119 909 l 789 909 q 909 789 909 909 l 909 119 q 789 0 909 0 l 119 0 q 0 119 0 0 l 0 789 q 119 909 0 909 m 290 784 l 290 675 l 431 675 l 431 784 l 290 784 m 480 784 l 480 675 l 621 675 l 621 784 l 480 784 m 239 499 l 393 499 q 450 543 393 543 l 456 543 q 510 505 510 543 l 510 499 q 418 456 510 463 q 263 412 327 449 q 220 326 220 372 l 220 304 q 315 190 220 224 q 363 184 342 184 l 385 184 q 507 231 460 184 l 507 233 l 513 233 q 518 195 518 199 l 686 195 l 686 198 q 667 309 667 226 l 667 502 q 600 618 667 591 q 464 640 553 640 l 461 640 q 260 570 304 640 q 239 499 239 534 m 510 388 l 510 358 q 450 282 503 282 l 434 282 q 388 320 388 290 l 388 328 q 496 382 388 363 q 510 388 496 387 z "},"å":{"ha":929,"x_min":0,"x_max":909,"o":"m 119 909 l 789 909 q 909 789 909 909 l 909 119 q 789 0 909 0 l 119 0 q 0 119 0 0 l 0 789 q 119 909 0 909 m 361 751 q 453 659 377 659 l 458 659 q 548 732 522 659 l 548 765 q 477 844 548 817 q 453 846 463 846 q 361 751 375 846 m 456 798 q 499 757 499 786 l 499 751 q 458 708 491 708 l 456 708 q 410 751 410 718 q 456 798 420 798 m 239 499 l 393 499 q 450 543 393 543 l 456 543 q 510 505 510 543 l 510 499 q 418 456 510 463 q 263 412 327 449 q 220 326 220 372 l 220 304 q 315 190 220 224 q 363 184 342 184 l 385 184 q 507 231 460 184 l 507 233 l 513 233 q 518 195 518 199 l 686 195 l 686 198 q 667 309 667 226 l 667 502 q 600 618 667 591 q 464 640 553 640 l 461 640 q 260 570 304 640 q 239 499 239 534 m 510 388 l 510 358 q 450 282 503 282 l 434 282 q 388 320 388 290 l 388 328 q 496 382 388 363 q 510 388 496 387 z "},"æ":{"ha":929,"x_min":0,"x_max":909,"o":"m 119 909 l 789 909 q 909 789 909 909 l 909 119 q 789 0 909 0 l 119 0 q 0 119 0 0 l 0 789 q 119 909 0 909 m 95 499 l 252 499 q 309 543 252 536 l 328 543 q 377 502 377 536 q 252 453 377 462 q 111 404 179 453 q 76 317 76 368 q 168 190 76 222 q 220 184 201 184 l 255 184 q 434 239 363 184 l 439 239 q 581 184 490 184 l 613 184 q 808 293 740 184 q 819 320 819 313 l 665 320 q 608 290 633 290 l 594 290 q 518 358 534 290 l 518 372 l 524 374 l 830 374 l 830 401 q 692 627 830 566 q 608 640 650 640 l 602 640 q 469 597 519 640 l 461 597 q 312 640 408 640 l 309 640 q 109 556 155 640 q 95 499 98 524 m 591 534 q 667 464 667 527 l 662 461 l 524 461 q 518 469 518 461 q 586 534 518 523 l 591 534 m 377 391 l 377 366 q 315 282 370 282 l 293 282 q 244 320 254 282 q 347 380 244 366 q 377 391 366 391 z "},"ç":{"ha":929,"x_min":0,"x_max":909,"o":"m 119 909 l 789 909 q 909 789 909 909 l 909 119 q 789 0 909 0 l 119 0 q 0 119 0 0 l 0 789 q 119 909 0 909 m 222 420 q 388 203 222 262 q 420 195 395 203 q 380 125 380 130 l 401 109 l 431 117 q 469 87 469 112 l 469 84 q 423 54 469 54 q 353 71 412 54 l 353 68 q 336 33 336 35 q 448 11 401 11 l 453 11 q 556 57 528 11 q 562 90 562 76 q 513 149 562 131 q 469 155 490 155 q 442 152 446 152 l 442 155 q 480 195 463 195 q 654 290 583 195 q 684 377 684 343 l 526 377 q 467 315 513 315 l 458 315 q 388 423 388 315 q 461 532 388 532 q 521 477 521 524 l 526 475 l 678 475 q 548 637 678 586 q 456 651 497 651 q 233 496 299 651 q 222 420 225 465 z "},"è":{"ha":929,"x_min":0,"x_max":909,"o":"m 119 909 l 789 909 q 909 789 909 909 l 909 119 q 789 0 909 0 l 119 0 q 0 119 0 0 l 0 789 q 119 909 0 909 m 282 795 l 282 792 q 423 673 302 778 l 537 673 q 453 795 455 795 l 282 795 m 214 407 q 374 195 214 249 q 448 184 407 184 l 472 184 q 675 304 608 184 l 681 320 l 529 320 q 464 290 500 290 l 453 290 q 374 358 392 290 q 372 372 374 367 l 377 374 l 692 374 q 439 640 692 640 q 233 505 299 640 q 214 407 214 458 m 458 534 q 532 469 532 524 l 532 467 q 526 461 532 461 l 380 461 q 374 467 374 461 q 439 534 374 511 l 458 534 z "},"é":{"ha":929,"x_min":0,"x_max":909,"o":"m 119 909 l 789 909 q 909 789 909 909 l 909 119 q 789 0 909 0 l 119 0 q 0 119 0 0 l 0 789 q 119 909 0 909 m 366 673 l 480 673 q 621 792 610 786 l 621 795 l 450 795 q 366 673 444 791 m 214 407 q 374 195 214 249 q 448 184 407 184 l 472 184 q 675 304 608 184 l 681 320 l 529 320 q 464 290 500 290 l 453 290 q 374 358 392 290 q 372 372 374 367 l 377 374 l 692 374 q 439 640 692 640 q 233 505 299 640 q 214 407 214 458 m 458 534 q 532 469 532 524 l 532 467 q 526 461 532 461 l 380 461 q 374 467 374 461 q 439 534 374 511 l 458 534 z "},"ê":{"ha":929,"x_min":0,"x_max":909,"o":"m 119 909 l 789 909 q 909 789 909 909 l 909 119 q 789 0 909 0 l 119 0 q 0 119 0 0 l 0 789 q 119 909 0 909 m 380 795 l 285 673 l 404 673 q 448 732 448 727 l 456 732 q 496 673 496 675 l 621 673 q 524 795 524 790 l 380 795 m 214 407 q 374 195 214 249 q 448 184 407 184 l 472 184 q 675 304 608 184 l 681 320 l 529 320 q 464 290 500 290 l 453 290 q 374 358 392 290 q 372 372 374 367 l 377 374 l 692 374 q 439 640 692 640 q 233 505 299 640 q 214 407 214 458 m 458 534 q 532 469 532 524 l 532 467 q 526 461 532 461 l 380 461 q 374 467 374 461 q 439 534 374 511 l 458 534 z "},"ë":{"ha":929,"x_min":0,"x_max":909,"o":"m 119 909 l 789 909 q 909 789 909 909 l 909 119 q 789 0 909 0 l 119 0 q 0 119 0 0 l 0 789 q 119 909 0 909 m 285 784 l 285 675 l 429 675 l 429 784 l 285 784 m 477 784 l 477 675 l 618 675 l 618 784 l 477 784 m 214 407 q 374 195 214 249 q 448 184 407 184 l 472 184 q 675 304 608 184 l 681 320 l 529 320 q 464 290 500 290 l 453 290 q 374 358 392 290 q 372 372 374 367 l 377 374 l 692 374 q 439 640 692 640 q 233 505 299 640 q 214 407 214 458 m 458 534 q 532 469 532 524 l 532 467 q 526 461 532 461 l 380 461 q 374 467 374 461 q 439 534 374 511 l 458 534 z "},"ì":{"ha":929,"x_min":0,"x_max":909,"o":"m 119 909 l 789 909 q 909 789 909 909 l 909 119 q 789 0 909 0 l 119 0 q 0 119 0 0 l 0 789 q 119 909 0 909 m 285 795 q 423 673 297 780 l 537 673 q 453 795 457 793 l 285 795 m 369 629 l 369 195 l 534 195 l 534 629 l 369 629 z "},"í":{"ha":929,"x_min":0,"x_max":909,"o":"m 119 909 l 789 909 q 909 789 909 909 l 909 119 q 789 0 909 0 l 119 0 q 0 119 0 0 l 0 789 q 119 909 0 909 m 369 675 l 369 673 l 480 673 q 621 795 507 694 l 450 795 q 369 675 448 795 m 369 629 l 369 195 l 534 195 l 534 629 l 369 629 z "},"î":{"ha":929,"x_min":0,"x_max":909,"o":"m 119 909 l 789 909 q 909 789 909 909 l 909 119 q 789 0 909 0 l 119 0 q 0 119 0 0 l 0 789 q 119 909 0 909 m 285 673 l 404 673 q 448 732 448 725 l 453 732 q 502 673 499 673 l 621 673 l 521 795 l 385 795 q 285 673 356 766 m 369 629 l 369 195 l 534 195 l 534 629 l 369 629 z "},"ï":{"ha":929,"x_min":0,"x_max":909,"o":"m 119 909 l 789 909 q 909 789 909 909 l 909 119 q 789 0 909 0 l 119 0 q 0 119 0 0 l 0 789 q 119 909 0 909 m 288 784 l 288 675 l 429 675 l 429 784 l 288 784 m 477 784 l 477 675 l 618 675 l 618 784 l 477 784 m 369 629 l 369 195 l 534 195 l 534 629 l 369 629 z "},"ð":{"ha":929,"x_min":0,"x_max":909,"o":"m 119 909 l 789 909 q 909 789 909 909 l 909 119 q 789 0 909 0 l 119 0 q 0 119 0 0 l 0 789 q 119 909 0 909 m 475 735 q 418 773 461 741 q 298 705 306 708 l 298 703 q 345 667 315 701 q 279 632 283 632 q 339 567 280 626 q 423 608 415 608 l 426 608 q 494 534 484 562 l 491 534 q 437 545 464 545 l 407 545 q 236 437 298 545 q 217 345 217 396 l 217 334 q 350 136 217 186 q 434 122 392 122 l 442 122 q 453 119 448 122 q 670 258 612 119 q 689 363 689 315 l 689 401 q 551 673 689 538 l 551 675 l 629 722 q 567 784 626 722 q 475 735 487 739 m 445 439 l 461 439 q 524 363 515 439 q 526 345 524 355 q 486 247 526 275 q 461 241 468 241 l 445 241 q 382 326 390 241 l 382 355 q 426 437 382 416 l 445 439 z "},"ñ":{"ha":929,"x_min":0,"x_max":909,"o":"m 119 909 l 789 909 q 909 789 909 909 l 909 119 q 789 0 909 0 l 119 0 q 0 119 0 0 l 0 789 q 119 909 0 909 m 548 792 q 513 757 545 757 q 388 789 416 789 l 382 789 q 298 724 321 789 q 290 675 290 695 l 290 673 l 353 673 q 391 708 372 708 q 515 675 502 675 l 521 675 q 613 757 587 675 q 618 792 616 788 l 548 792 m 391 578 l 388 578 l 388 629 l 228 629 l 228 195 l 393 195 l 393 426 q 434 505 393 487 l 450 507 l 472 507 q 515 423 515 507 l 515 195 l 681 195 l 681 475 q 529 640 681 640 q 391 578 441 640 z "},"ò":{"ha":929,"x_min":0,"x_max":909,"o":"m 119 909 l 789 909 q 909 789 909 909 l 909 119 q 789 0 909 0 l 119 0 q 0 119 0 0 l 0 789 q 119 909 0 909 m 285 795 q 429 673 416 675 l 537 673 q 458 795 463 785 l 285 795 m 217 418 l 217 407 q 377 193 217 243 q 442 184 408 184 l 464 184 q 686 366 645 184 q 689 399 689 380 l 689 426 q 532 632 689 577 q 458 640 484 640 l 456 640 q 228 494 282 640 q 217 418 217 454 m 456 521 q 526 412 526 521 q 453 304 526 304 l 448 304 q 382 385 393 304 l 382 429 q 456 521 382 521 z "},"ó":{"ha":929,"x_min":0,"x_max":909,"o":"m 119 909 l 789 909 q 909 789 909 909 l 909 119 q 789 0 909 0 l 119 0 q 0 119 0 0 l 0 789 q 119 909 0 909 m 448 795 q 369 673 443 785 l 475 673 q 548 730 486 673 q 621 795 621 791 l 448 795 m 217 418 l 217 407 q 377 193 217 243 q 442 184 408 184 l 464 184 q 686 366 645 184 q 689 399 689 380 l 689 426 q 532 632 689 577 q 458 640 484 640 l 456 640 q 228 494 282 640 q 217 418 217 454 m 456 521 q 526 412 526 521 q 453 304 526 304 l 448 304 q 382 385 393 304 l 382 429 q 456 521 382 521 z "},"ô":{"ha":929,"x_min":0,"x_max":909,"o":"m 119 909 l 789 909 q 909 789 909 909 l 909 119 q 789 0 909 0 l 119 0 q 0 119 0 0 l 0 789 q 119 909 0 909 m 285 673 l 404 673 l 453 732 q 502 673 456 732 l 621 673 q 521 795 570 740 l 385 795 q 285 673 383 795 m 217 418 l 217 407 q 377 193 217 243 q 442 184 408 184 l 464 184 q 686 366 645 184 q 689 399 689 380 l 689 426 q 532 632 689 577 q 458 640 484 640 l 456 640 q 228 494 282 640 q 217 418 217 454 m 456 521 q 526 412 526 521 q 453 304 526 304 l 448 304 q 382 385 393 304 l 382 429 q 456 521 382 521 z "},"õ":{"ha":929,"x_min":0,"x_max":909,"o":"m 119 909 l 789 909 q 909 789 909 909 l 909 119 q 789 0 909 0 l 119 0 q 0 119 0 0 l 0 789 q 119 909 0 909 m 548 792 q 515 757 541 757 l 510 757 q 391 789 415 789 l 380 789 q 301 732 324 789 q 290 681 290 709 l 290 673 l 355 673 q 391 708 367 708 q 502 678 491 678 l 521 675 q 616 792 616 690 l 548 792 m 217 418 l 217 407 q 377 193 217 243 q 442 184 408 184 l 464 184 q 686 366 645 184 q 689 399 689 380 l 689 426 q 532 632 689 577 q 458 640 484 640 l 456 640 q 228 494 282 640 q 217 418 217 454 m 456 521 q 526 412 526 521 q 453 304 526 304 l 448 304 q 382 385 393 304 l 382 429 q 456 521 382 521 z "},"ö":{"ha":929,"x_min":0,"x_max":909,"o":"m 119 909 l 789 909 q 909 789 909 909 l 909 119 q 789 0 909 0 l 119 0 q 0 119 0 0 l 0 789 q 119 909 0 909 m 288 784 l 288 675 l 429 675 l 429 784 l 288 784 m 477 784 l 477 675 l 618 675 l 618 784 l 477 784 m 217 418 l 217 407 q 377 193 217 243 q 442 184 408 184 l 464 184 q 686 366 645 184 q 689 399 689 380 l 689 426 q 532 632 689 577 q 458 640 484 640 l 456 640 q 228 494 282 640 q 217 418 217 454 m 456 521 q 526 412 526 521 q 453 304 526 304 l 448 304 q 382 385 393 304 l 382 429 q 456 521 382 521 z "},"÷":{"ha":929,"x_min":0,"x_max":909,"o":"m 119 909 l 789 909 q 909 789 909 909 l 909 119 q 789 0 909 0 l 119 0 q 0 119 0 0 l 0 789 q 119 909 0 909 m 369 627 q 434 545 369 568 l 453 543 q 537 627 537 555 l 537 629 q 450 713 537 702 q 369 632 369 696 l 369 627 m 241 518 l 241 391 l 665 391 l 665 518 l 241 518 m 369 279 q 456 195 369 209 q 537 274 537 214 l 537 282 q 450 366 537 355 q 369 282 383 366 l 369 279 z "},"ø":{"ha":929,"x_min":0,"x_max":909,"o":"m 119 909 l 789 909 q 909 789 909 909 l 909 119 q 789 0 909 0 l 119 0 q 0 119 0 0 l 0 789 q 119 909 0 909 m 594 605 q 458 640 530 640 l 456 640 q 228 494 282 640 q 217 418 217 454 l 217 407 q 282 244 217 309 l 239 193 q 269 165 267 165 q 317 217 310 217 q 442 184 374 184 l 464 184 q 686 366 645 184 q 689 399 689 380 l 689 426 q 627 581 689 510 q 665 627 654 611 q 637 651 665 629 l 594 605 m 456 521 q 502 499 484 521 l 502 496 q 388 366 391 366 l 385 366 l 382 393 l 382 429 q 456 521 382 521 m 518 453 q 524 448 524 452 l 524 445 q 526 412 524 427 q 453 304 526 304 l 448 304 q 407 323 422 304 l 407 326 q 518 453 509 446 z "},"ù":{"ha":929,"x_min":0,"x_max":909,"o":"m 119 909 l 789 909 q 909 789 909 909 l 909 119 q 789 0 909 0 l 119 0 q 0 119 0 0 l 0 789 q 119 909 0 909 m 285 795 l 285 792 l 426 673 l 537 673 l 537 675 q 456 795 458 795 l 285 795 m 228 629 l 228 339 q 307 198 228 235 q 369 184 340 184 l 385 184 q 518 247 468 184 l 521 247 l 521 195 l 681 195 l 681 629 l 515 629 l 515 407 q 445 315 515 315 q 393 393 393 315 l 393 629 l 228 629 z "},"ú":{"ha":929,"x_min":0,"x_max":909,"o":"m 119 909 l 789 909 q 909 789 909 909 l 909 119 q 789 0 909 0 l 119 0 q 0 119 0 0 l 0 789 q 119 909 0 909 m 369 673 l 483 673 q 624 792 617 790 l 624 795 l 453 795 q 369 673 446 791 m 228 629 l 228 339 q 307 198 228 235 q 369 184 340 184 l 385 184 q 518 247 468 184 l 521 247 l 521 195 l 681 195 l 681 629 l 515 629 l 515 407 q 445 315 515 315 q 393 393 393 315 l 393 629 l 228 629 z "},"û":{"ha":929,"x_min":0,"x_max":909,"o":"m 119 909 l 789 909 q 909 789 909 909 l 909 119 q 789 0 909 0 l 119 0 q 0 119 0 0 l 0 789 q 119 909 0 909 m 382 795 l 288 673 l 407 673 l 453 732 l 458 732 q 499 673 499 675 l 621 673 l 621 675 q 521 795 532 787 l 382 795 m 228 629 l 228 339 q 307 198 228 235 q 369 184 340 184 l 385 184 q 518 247 468 184 l 521 247 l 521 195 l 681 195 l 681 629 l 515 629 l 515 407 q 445 315 515 315 q 393 393 393 315 l 393 629 l 228 629 z "},"ü":{"ha":929,"x_min":0,"x_max":909,"o":"m 119 909 l 789 909 q 909 789 909 909 l 909 119 q 789 0 909 0 l 119 0 q 0 119 0 0 l 0 789 q 119 909 0 909 m 288 784 l 288 675 l 429 675 l 429 779 l 431 784 l 288 784 m 477 784 l 480 779 l 480 675 l 621 675 l 621 784 l 477 784 m 228 629 l 228 339 q 307 198 228 235 q 369 184 340 184 l 385 184 q 518 247 468 184 l 521 247 l 521 195 l 681 195 l 681 629 l 515 629 l 515 407 q 445 315 515 315 q 393 393 393 315 l 393 629 l 228 629 z "},"ý":{"ha":929,"x_min":0,"x_max":909,"o":"m 119 909 l 789 909 q 909 789 909 909 l 909 119 q 789 0 909 0 l 119 0 q 0 119 0 0 l 0 789 q 119 909 0 909 m 369 673 l 483 673 q 624 792 617 790 l 624 795 l 453 795 q 369 673 446 791 m 209 629 q 355 220 336 294 l 355 214 q 312 184 355 184 l 250 184 l 250 54 l 369 54 q 537 176 501 54 l 700 629 l 532 629 q 480 453 526 629 q 456 382 460 382 l 453 382 q 382 629 389 629 l 209 629 z "},"þ":{"ha":929,"x_min":0,"x_max":909,"o":"m 119 909 l 789 909 q 909 789 909 909 l 909 119 q 789 0 909 0 l 119 0 q 0 119 0 0 l 0 789 q 119 909 0 909 m 217 822 l 217 84 l 382 84 l 382 266 q 388 271 383 271 q 499 214 429 214 l 505 214 q 678 347 636 214 q 689 439 689 399 l 689 448 q 567 662 689 615 q 505 670 540 670 l 499 670 q 385 613 432 670 l 382 618 l 382 822 l 217 822 m 453 551 q 518 496 500 551 q 524 456 524 471 l 524 429 q 448 334 524 334 q 377 445 377 334 q 453 551 377 551 z "},"ÿ":{"ha":929,"x_min":0,"x_max":909,"o":"m 119 909 l 789 909 q 909 789 909 909 l 909 119 q 789 0 909 0 l 119 0 q 0 119 0 0 l 0 789 q 119 909 0 909 m 288 784 l 288 675 l 429 675 l 429 784 l 288 784 m 477 784 l 477 675 l 618 675 l 618 784 l 477 784 m 209 629 q 355 222 339 275 q 309 184 355 184 l 250 184 l 250 54 l 366 54 q 526 149 485 54 l 697 629 l 526 629 l 458 382 l 453 382 l 385 629 l 209 629 z "},"ı":{"ha":929,"x_min":0,"x_max":909,"o":"m 119 909 l 789 909 q 909 789 909 909 l 909 119 q 789 0 909 0 l 119 0 q 0 119 0 0 l 0 789 q 119 909 0 909 m 372 629 l 372 195 l 537 195 l 537 629 l 372 629 z "},"Œ":{"ha":929,"x_min":0,"x_max":909,"o":"m 119 909 l 789 909 q 909 789 909 909 l 909 119 q 789 0 909 0 l 119 0 q 0 119 0 0 l 0 789 q 119 909 0 909 m 14 448 q 163 174 14 268 q 282 141 221 141 l 307 141 q 431 182 382 141 l 434 176 l 434 155 l 892 155 l 892 307 l 605 307 q 600 312 600 307 l 600 377 q 605 382 600 382 l 860 382 l 860 524 l 605 524 q 600 529 600 524 l 600 594 q 605 600 600 600 l 884 600 l 884 751 l 434 751 l 434 727 q 429 722 434 722 q 315 765 388 765 l 288 765 q 33 567 117 765 q 14 448 14 492 m 320 618 q 420 537 390 618 q 431 472 431 509 l 431 445 q 347 293 431 324 q 315 288 321 288 q 206 382 237 288 q 198 458 198 426 q 263 605 198 569 q 320 618 288 618 z "},"œ":{"ha":929,"x_min":0,"x_max":909,"o":"m 119 909 l 789 909 q 909 789 909 909 l 909 119 q 789 0 909 0 l 119 0 q 0 119 0 0 l 0 789 q 119 909 0 909 m 65 453 q 187 247 65 304 q 293 228 232 228 q 450 282 395 228 q 608 228 506 228 l 613 228 q 838 361 781 228 l 838 363 l 681 363 q 616 334 651 334 l 602 334 q 521 410 521 344 l 521 415 l 526 418 l 844 418 q 705 667 844 610 q 613 684 659 684 l 602 684 q 458 632 519 684 q 304 684 404 684 l 301 684 q 81 548 143 684 q 65 453 65 509 m 591 578 l 605 578 q 678 515 665 578 l 678 507 l 673 505 l 526 505 q 521 513 521 505 q 591 578 521 563 m 307 564 q 380 453 380 564 q 304 347 380 347 q 231 450 231 347 l 231 461 q 307 564 231 564 z "},"Ÿ":{"ha":929,"x_min":0,"x_max":909,"o":"m 119 909 l 789 909 q 909 789 909 909 l 909 119 q 789 0 909 0 l 119 0 q 0 119 0 0 l 0 789 q 119 909 0 909 m 290 830 l 290 722 l 431 722 l 431 830 l 290 830 m 480 830 l 480 722 l 621 722 l 621 830 l 480 830 m 152 675 l 152 673 l 361 298 l 361 79 l 545 79 l 545 293 q 760 675 551 314 l 556 675 l 456 458 l 450 458 q 350 675 363 661 l 152 675 z "},"Ω":{"ha":929,"x_min":0,"x_max":909,"o":"m 119 909 l 789 909 q 909 789 909 909 l 909 119 q 789 0 909 0 l 119 0 q 0 119 0 0 l 0 789 q 119 909 0 909 m 146 491 l 146 477 q 266 266 146 358 l 266 263 l 133 263 l 133 163 l 415 163 l 415 239 q 288 456 288 313 q 434 643 288 610 l 467 643 q 618 513 573 643 q 624 458 624 481 q 496 239 624 317 l 496 163 l 776 163 l 776 263 l 646 263 q 640 269 640 263 q 765 488 765 352 q 627 705 765 623 q 453 746 550 746 q 165 581 254 746 q 146 491 146 534 z "},"π":{"ha":929,"x_min":0,"x_max":909,"o":"m 119 909 l 789 909 q 909 789 909 909 l 909 119 q 789 0 909 0 l 119 0 q 0 119 0 0 l 0 789 q 119 909 0 909 m 163 635 l 176 556 q 236 564 197 564 l 263 564 q 269 559 269 564 l 269 548 q 217 239 269 431 l 350 239 q 393 412 365 239 q 407 562 407 495 l 412 564 l 524 564 q 529 559 529 564 l 529 345 q 543 239 529 276 l 681 239 q 670 355 670 292 l 670 559 q 675 564 671 564 l 735 564 l 746 670 l 326 670 q 163 635 163 666 z "},"–":{"ha":929,"x_min":0,"x_max":909,"o":"m 119 909 l 789 909 q 909 789 909 909 l 909 119 q 789 0 909 0 l 119 0 q 0 119 0 0 l 0 789 q 119 909 0 909 m 244 518 l 244 388 l 665 388 l 665 518 l 244 518 z "},"—":{"ha":929,"x_min":0,"x_max":909,"o":"m 119 909 l 789 909 q 909 789 909 909 l 909 119 q 789 0 909 0 l 119 0 q 0 119 0 0 l 0 789 q 119 909 0 909 m 160 518 l 160 388 l 749 388 l 749 518 l 160 518 z "},"‘":{"ha":929,"x_min":0,"x_max":909,"o":"m 119 909 l 789 909 q 909 789 909 909 l 909 119 q 789 0 909 0 l 119 0 q 0 119 0 0 l 0 789 q 119 909 0 909 m 377 697 l 377 556 l 532 556 l 532 722 l 467 722 q 461 727 461 722 q 532 800 471 800 l 532 873 q 407 817 473 873 q 377 697 377 772 z "},"’":{"ha":929,"x_min":0,"x_max":909,"o":"m 119 909 l 789 909 q 909 789 909 909 l 909 119 q 789 0 909 0 l 119 0 q 0 119 0 0 l 0 789 q 119 909 0 909 m 377 873 l 377 708 l 439 708 q 445 703 445 707 q 396 632 445 648 q 377 629 385 629 l 377 556 q 496 608 431 556 q 532 768 532 647 l 532 873 l 377 873 z "},"“":{"ha":929,"x_min":0,"x_max":909,"o":"m 119 909 l 789 909 q 909 789 909 909 l 909 119 q 789 0 909 0 l 119 0 q 0 119 0 0 l 0 789 q 119 909 0 909 m 274 705 l 274 556 l 426 556 l 426 722 l 363 722 q 358 727 358 722 q 426 800 368 800 l 426 873 q 317 830 383 873 q 274 705 274 789 m 477 670 l 477 556 l 632 556 l 632 722 l 570 722 q 564 727 564 722 l 564 735 q 632 800 564 790 l 632 873 q 521 830 564 863 q 477 670 477 792 z "},"”":{"ha":929,"x_min":0,"x_max":909,"o":"m 119 909 l 789 909 q 909 789 909 909 l 909 119 q 789 0 909 0 l 119 0 q 0 119 0 0 l 0 789 q 119 909 0 909 m 274 873 l 274 708 l 336 708 q 342 703 342 707 q 293 632 342 649 q 274 629 282 629 l 274 556 q 391 608 330 556 q 426 713 426 648 l 426 873 l 274 873 m 477 873 l 477 708 l 543 708 l 548 705 q 477 629 539 629 l 477 556 q 600 610 536 556 q 632 741 632 651 l 632 873 l 477 873 z "},"†":{"ha":929,"x_min":0,"x_max":909,"o":"m 119 909 l 789 909 q 909 789 909 909 l 909 119 q 789 0 909 0 l 119 0 q 0 119 0 0 l 0 789 q 119 909 0 909 m 369 825 l 369 675 q 363 670 369 670 l 222 670 l 222 540 l 363 540 q 369 534 369 539 l 369 81 l 534 81 l 534 534 q 540 540 535 540 l 681 540 l 681 670 l 540 670 q 534 675 534 670 l 534 825 l 369 825 z "},"‡":{"ha":929,"x_min":0,"x_max":909,"o":"m 119 909 l 789 909 q 909 789 909 909 l 909 119 q 789 0 909 0 l 119 0 q 0 119 0 0 l 0 789 q 119 909 0 909 m 369 825 l 369 675 q 363 670 369 670 l 222 670 l 222 540 l 363 540 q 369 534 369 539 l 369 377 q 363 372 369 372 l 222 372 l 222 239 l 363 239 q 369 233 369 238 l 369 81 l 534 81 l 534 233 q 540 239 535 239 l 681 239 l 681 372 l 540 372 q 534 377 534 372 l 534 534 q 540 540 535 540 l 681 540 l 681 670 l 540 670 q 534 675 534 670 l 534 825 l 369 825 z "},"•":{"ha":929,"x_min":0,"x_max":909,"o":"m 119 909 l 789 909 q 909 789 909 909 l 909 119 q 789 0 909 0 l 119 0 q 0 119 0 0 l 0 789 q 119 909 0 909 m 307 461 l 307 442 q 393 317 307 363 q 453 304 421 304 l 456 304 q 600 420 563 304 q 605 456 602 423 q 502 594 605 551 q 453 602 486 602 q 309 486 345 602 q 307 461 307 475 z "},"…":{"ha":929,"x_min":0,"x_max":909,"o":"m 119 909 l 789 909 q 909 789 909 909 l 909 119 q 789 0 909 0 l 119 0 q 0 119 0 0 l 0 789 q 119 909 0 909 m 87 361 l 87 195 l 260 195 l 260 361 l 87 361 m 366 361 l 366 195 l 540 195 l 540 361 l 366 361 m 646 361 l 646 195 l 819 195 l 819 361 l 646 361 z "},"‰":{"ha":929,"x_min":0,"x_max":909,"o":"m 119 909 l 789 909 q 909 789 909 909 l 909 119 q 789 0 909 0 l 119 0 q 0 119 0 0 l 0 789 q 119 909 0 909 m 92 141 l 92 138 l 98 141 l 182 141 q 526 765 196 161 l 437 765 q 92 141 420 741 m 22 610 l 22 602 q 103 467 22 494 q 141 461 123 461 l 144 461 q 258 551 230 461 q 263 602 263 583 l 263 610 q 182 746 263 718 q 141 751 159 751 q 27 662 55 751 q 22 610 22 629 m 138 678 l 146 678 q 176 624 176 678 l 176 583 q 146 534 176 534 l 138 534 q 109 583 109 534 l 109 627 q 138 678 109 678 m 358 301 l 358 296 q 439 160 358 189 q 480 155 465 155 q 594 244 566 155 q 600 296 600 277 l 600 301 q 521 439 600 410 q 483 445 500 445 l 475 445 q 366 363 395 445 q 358 301 358 336 m 648 317 l 648 282 q 738 157 648 187 l 770 155 q 887 266 865 155 q 890 301 887 267 q 803 442 890 412 l 770 445 l 765 445 q 651 345 673 445 q 648 317 648 330 m 480 374 q 513 323 513 374 l 513 277 q 483 228 513 228 l 475 228 q 445 277 445 228 l 445 323 q 480 374 445 374 m 768 374 q 803 312 803 374 l 803 288 q 770 228 803 228 l 765 228 q 732 301 732 228 q 768 374 732 374 z "},"‹":{"ha":929,"x_min":0,"x_max":909,"o":"m 119 909 l 789 909 q 909 789 909 909 l 909 119 q 789 0 909 0 l 119 0 q 0 119 0 0 l 0 789 q 119 909 0 909 m 385 526 l 385 377 q 518 274 393 374 l 521 274 l 521 401 l 458 453 l 521 507 l 521 635 q 385 526 435 570 z "},"›":{"ha":929,"x_min":0,"x_max":909,"o":"m 119 909 l 789 909 q 909 789 909 909 l 909 119 q 789 0 909 0 l 119 0 q 0 119 0 0 l 0 789 q 119 909 0 909 m 385 635 l 385 502 q 448 453 393 502 q 385 401 385 404 l 385 274 q 521 382 471 338 l 521 526 q 385 635 520 530 z "},"⁄":{"ha":929,"x_min":0,"x_max":909,"o":"m 119 909 l 789 909 q 909 789 909 909 l 909 119 q 789 0 909 0 l 119 0 q 0 119 0 0 l 0 789 q 119 909 0 909 m 567 765 l 244 138 l 250 141 l 334 141 q 659 765 338 143 l 567 765 z "},"₤":{"ha":929,"x_min":0,"x_max":909,"o":"m 119 909 l 789 909 q 909 789 909 909 l 909 119 q 789 0 909 0 l 119 0 q 0 119 0 0 l 0 789 q 119 909 0 909 m 236 578 q 258 505 236 536 l 258 499 l 201 499 l 201 393 l 296 393 q 304 372 304 392 l 304 355 q 214 233 304 294 l 214 231 q 279 141 276 141 q 366 174 327 174 q 537 141 401 174 l 572 141 q 705 209 644 141 q 640 323 644 321 l 637 323 q 578 271 614 271 q 456 293 478 293 l 453 293 q 426 288 448 293 q 472 377 472 330 l 469 391 l 475 393 l 532 393 l 532 499 l 445 499 q 410 578 420 532 l 410 589 q 464 635 410 635 q 521 559 521 625 l 681 559 l 681 562 q 548 754 681 705 q 475 765 511 765 l 439 765 q 244 632 296 765 q 236 578 236 612 z "},"€":{"ha":929,"x_min":0,"x_max":909,"o":"m 119 909 l 789 909 q 909 789 909 909 l 909 119 q 789 0 909 0 l 119 0 q 0 119 0 0 l 0 789 q 119 909 0 909 m 263 545 l 236 545 q 201 469 227 538 l 252 469 q 258 464 258 469 l 258 437 q 231 429 258 431 l 203 358 l 263 358 q 288 301 270 355 q 534 144 365 144 l 543 144 q 673 168 609 144 l 673 323 l 670 323 q 551 282 610 282 q 448 358 477 282 l 559 358 q 589 431 567 385 l 434 431 q 429 437 429 431 l 429 464 q 434 469 429 469 l 600 469 q 632 545 606 469 l 450 545 l 445 548 q 543 621 479 621 l 559 621 q 643 591 595 621 l 648 591 l 705 716 q 534 762 617 762 q 271 553 342 762 q 263 545 271 549 z "},"™":{"ha":929,"x_min":0,"x_max":909,"o":"m 119 909 l 789 909 q 909 789 909 909 l 909 119 q 789 0 909 0 l 119 0 q 0 119 0 0 l 0 789 q 119 909 0 909 m 62 857 l 62 779 l 144 779 q 149 773 149 778 l 149 513 l 263 513 l 260 518 l 260 773 q 266 779 261 779 l 350 779 l 350 857 l 62 857 m 423 857 l 423 513 l 526 513 l 526 697 l 532 697 q 594 513 588 513 l 678 513 l 738 700 l 743 700 l 743 513 l 846 513 l 846 857 l 703 857 q 637 659 637 664 l 635 659 q 567 857 628 659 l 423 857 z "},"Ω":{"ha":929,"x_min":0,"x_max":909,"o":"m 119 909 l 789 909 q 909 789 909 909 l 909 119 q 789 0 909 0 l 119 0 q 0 119 0 0 l 0 789 q 119 909 0 909 m 146 491 l 146 477 q 266 266 146 358 l 266 263 l 133 263 l 133 163 l 415 163 l 415 239 q 288 456 288 313 q 434 643 288 610 l 467 643 q 618 513 573 643 q 624 458 624 481 q 496 239 624 317 l 496 163 l 776 163 l 776 263 l 646 263 q 640 269 640 263 q 765 488 765 352 q 627 705 765 623 q 453 746 550 746 q 165 581 254 746 q 146 491 146 534 z "},"∂":{"ha":929,"x_min":0,"x_max":909,"o":"m 119 909 l 789 909 q 909 789 909 909 l 909 119 q 789 0 909 0 l 119 0 q 0 119 0 0 l 0 789 q 119 909 0 909 m 231 732 q 271 643 246 688 q 393 678 332 678 l 410 678 q 559 548 517 678 q 567 475 567 516 l 567 469 l 562 469 q 415 543 506 543 q 214 396 271 543 q 203 328 207 366 q 320 146 203 216 q 415 127 367 127 l 420 127 q 684 336 610 127 q 700 445 700 391 l 700 486 q 567 741 700 646 q 434 781 500 781 l 401 781 q 231 732 320 781 m 445 442 l 450 442 q 551 369 518 442 l 551 363 q 434 231 516 231 l 420 231 q 342 315 363 231 l 342 326 q 445 442 356 442 z "},"∆":{"ha":929,"x_min":0,"x_max":909,"o":"m 119 909 l 789 909 q 909 789 909 909 l 909 119 q 789 0 909 0 l 119 0 q 0 119 0 0 l 0 789 q 119 909 0 909 m 372 749 l 155 231 l 155 160 l 757 160 l 757 222 q 624 551 749 255 q 543 749 543 745 l 372 749 m 445 635 l 453 635 q 597 266 496 507 l 591 263 l 309 263 q 304 269 304 263 q 445 635 407 512 z "},"∑":{"ha":929,"x_min":0,"x_max":909,"o":"m 119 909 l 789 909 q 909 789 909 909 l 909 119 q 789 0 909 0 l 119 0 q 0 119 0 0 l 0 789 q 119 909 0 909 m 209 781 l 209 697 q 423 453 248 650 l 198 203 l 198 130 l 713 130 l 713 241 l 385 241 q 380 247 380 241 q 578 467 400 264 l 578 469 q 401 667 418 645 l 401 673 l 694 673 l 694 781 l 209 781 z "},"−":{"ha":929,"x_min":0,"x_max":909,"o":"m 119 909 l 789 909 q 909 789 909 909 l 909 119 q 789 0 909 0 l 119 0 q 0 119 0 0 l 0 789 q 119 909 0 909 m 141 518 l 141 388 l 762 388 l 762 518 l 141 518 z "},"√":{"ha":929,"x_min":0,"x_max":909,"o":"m 119 909 l 789 909 q 909 789 909 909 l 909 119 q 789 0 909 0 l 119 0 q 0 119 0 0 l 0 789 q 119 909 0 909 m 735 857 l 643 857 q 467 182 486 274 l 461 182 q 339 515 442 253 q 171 448 178 448 q 193 380 171 433 q 260 407 239 400 q 407 52 388 105 l 513 52 q 570 250 520 52 q 741 860 575 260 l 735 857 z "},"∞":{"ha":929,"x_min":0,"x_max":909,"o":"m 119 909 l 789 909 q 909 789 909 909 l 909 119 q 789 0 909 0 l 119 0 q 0 119 0 0 l 0 789 q 119 909 0 909 m 149 450 q 266 304 149 338 q 293 301 280 301 q 453 396 378 301 l 456 396 q 616 301 529 301 q 754 415 719 301 q 760 458 760 427 q 643 605 760 574 l 608 605 q 458 513 538 605 q 312 605 388 605 l 290 605 q 155 496 193 605 q 149 450 149 475 m 307 540 q 415 448 361 540 l 415 445 q 298 369 353 369 q 220 453 231 369 l 220 456 q 293 540 220 527 l 307 540 m 605 540 l 618 540 q 689 456 678 540 l 689 453 q 618 369 689 383 l 616 369 q 496 456 555 369 q 605 540 559 540 z "},"∫":{"ha":929,"x_min":0,"x_max":909,"o":"m 119 909 l 789 909 q 909 789 909 909 l 909 119 q 789 0 909 0 l 119 0 q 0 119 0 0 l 0 789 q 119 909 0 909 m 396 673 l 396 632 l 410 296 l 410 222 q 353 117 410 128 l 336 117 q 298 125 316 117 l 285 38 q 366 24 321 24 q 513 165 482 24 q 521 250 518 201 q 505 654 505 616 q 570 798 505 798 l 581 798 q 613 792 594 798 q 627 873 613 806 q 564 884 592 884 q 412 779 452 884 q 396 673 396 737 z "},"≈":{"ha":929,"x_min":0,"x_max":909,"o":"m 119 909 l 789 909 q 909 789 909 909 l 909 119 q 789 0 909 0 l 119 0 q 0 119 0 0 l 0 789 q 119 909 0 909 m 225 521 l 225 518 q 271 472 225 515 q 355 532 318 532 l 369 532 q 499 477 397 532 l 548 469 q 681 559 621 469 q 635 605 681 562 q 553 545 589 545 l 534 545 q 423 597 518 545 q 382 605 399 605 l 355 605 q 225 521 287 605 m 225 347 q 271 301 229 347 q 366 363 315 363 q 499 309 391 363 q 551 301 524 301 q 681 391 622 301 l 635 437 l 632 437 q 543 374 594 374 q 420 429 522 374 q 363 437 392 437 q 225 350 287 437 l 225 347 z "},"≠":{"ha":929,"x_min":0,"x_max":909,"o":"m 119 909 l 789 909 q 909 789 909 909 l 909 119 q 789 0 909 0 l 119 0 q 0 119 0 0 l 0 789 q 119 909 0 909 m 521 686 q 472 586 482 599 l 239 586 l 239 515 l 437 515 q 442 510 442 515 q 388 401 399 413 l 239 401 l 239 328 l 358 328 q 326 252 358 318 q 385 225 328 252 q 437 328 421 311 l 670 328 l 670 401 l 467 401 l 467 404 q 518 515 513 515 l 670 515 l 670 586 l 553 586 l 548 589 l 581 659 l 521 686 z "},"≤":{"ha":929,"x_min":0,"x_max":909,"o":"m 119 909 l 789 909 q 909 789 909 909 l 909 119 q 789 0 909 0 l 119 0 q 0 119 0 0 l 0 789 q 119 909 0 909 m 241 545 l 241 475 l 239 469 q 667 279 656 282 l 667 361 l 320 505 l 320 507 q 659 651 320 513 l 667 659 l 667 738 q 241 545 247 551 m 239 247 l 239 171 l 670 171 l 670 247 l 239 247 z "},"≥":{"ha":929,"x_min":0,"x_max":909,"o":"m 119 909 l 789 909 q 909 789 909 909 l 909 119 q 789 0 909 0 l 119 0 q 0 119 0 0 l 0 789 q 119 909 0 909 m 241 735 l 241 654 q 589 510 245 654 l 589 505 l 241 361 l 241 277 q 670 467 657 464 l 670 548 l 241 735 m 239 247 l 239 171 l 662 171 q 667 176 667 171 l 667 247 l 239 247 z "},"◊":{"ha":929,"x_min":0,"x_max":909,"o":"m 119 909 l 789 909 q 909 789 909 909 l 909 119 q 789 0 909 0 l 119 0 q 0 119 0 0 l 0 789 q 119 909 0 909 m 399 781 l 209 453 l 209 450 q 401 127 386 146 l 502 127 q 697 453 511 135 q 507 781 525 747 l 399 781 m 448 684 l 450 684 l 486 618 l 581 448 q 453 225 575 445 q 326 458 326 451 q 448 684 448 669 z "},"ﬁ":{"ha":929,"x_min":0,"x_max":909,"o":"m 119 909 l 789 909 q 909 789 909 909 l 909 119 q 789 0 909 0 l 119 0 q 0 119 0 0 l 0 789 q 119 909 0 909 m 252 605 l 252 594 q 247 589 252 589 l 184 589 l 184 488 l 247 488 q 252 483 252 488 l 252 155 l 418 155 l 418 483 q 423 488 418 488 l 502 488 l 502 589 l 420 589 q 415 594 415 589 l 415 605 q 448 640 419 640 l 469 640 q 505 635 492 640 l 505 743 l 507 749 q 434 751 457 751 l 412 751 q 252 605 252 751 m 553 751 l 553 637 l 719 637 l 719 751 l 553 751 m 553 589 l 553 155 l 719 155 l 719 589 l 553 589 z "},"ﬂ":{"ha":929,"x_min":0,"x_max":909,"o":"m 119 909 l 789 909 q 909 789 909 909 l 909 119 q 789 0 909 0 l 119 0 q 0 119 0 0 l 0 789 q 119 909 0 909 m 553 749 l 553 155 l 719 155 l 719 754 l 559 754 q 553 749 553 753 m 252 605 l 252 594 q 247 589 252 589 l 184 589 l 184 488 l 247 488 q 252 483 252 488 l 252 155 l 418 155 l 418 483 q 423 488 418 488 l 502 488 l 502 589 l 420 589 q 415 594 415 589 l 415 610 q 467 643 415 643 q 505 637 475 643 l 505 749 l 477 751 l 396 751 q 252 605 252 751 z "}}}
